<svg version="1.1" id="Layer_1" xmlns="http://www.w3.org/2000/svg" xmlns:xlink="http://www.w3.org/1999/xlink" x="0px" y="0px"
	 width="auto" viewBox="0 0 480 480" enable-background="new 0 0 480 480" xml:space="preserve">

<path fill="white" opacity="1.000000" stroke="none" 
	d="
M45.035198,211.889236 
	C47.732006,224.952698 56.117340,232.657120 69.363808,233.943192 
	C72.916977,234.288147 76.542442,233.840103 80.111908,234.086578 
	C81.810043,234.203842 83.923286,234.613449 85.053749,235.709961 
	C104.525078,254.596344 135.292465,243.611404 143.707245,221.541168 
	C150.597870,220.725372 157.334045,219.927856 164.070221,219.130341 
	C164.008926,218.553146 163.947632,217.975937 163.886337,217.398743 
	C157.396866,217.398743 150.907410,217.398743 144.361496,217.398743 
	C144.025894,213.036591 143.542725,209.271515 143.594345,205.513779 
	C143.606049,204.661865 145.349884,203.540115 146.510635,203.052505 
	C150.044266,201.568100 153.727051,200.438461 157.259033,198.950607 
	C158.745102,198.324615 159.998703,197.146790 160.884964,195.489639 
	C154.844894,196.817383 148.804840,198.145111 141.957352,199.650345 
	C141.266739,194.718460 139.229553,189.937241 140.488007,186.294601 
	C141.648468,182.935654 146.347321,180.799149 149.487610,178.124191 
	C149.241852,177.769196 148.996094,177.414200 148.750336,177.059204 
	C145.100403,178.419678 141.450455,179.780167 137.394806,181.291870 
	C128.065430,164.176498 112.000221,160.804382 93.336510,161.420410 
	C98.344193,154.158936 102.177773,147.648514 106.931427,141.898743 
	C117.882156,128.653305 128.667206,115.172966 140.712036,102.964493 
	C148.727707,94.839920 158.716629,88.631226 167.988007,81.789474 
	C172.635345,78.360008 178.068176,77.905586 183.705490,78.843590 
	C184.430695,78.964264 185.364380,77.832039 186.635422,77.444405 
	C187.359741,77.404930 187.650131,77.201248 187.940506,76.997559 
	C199.630112,74.116364 211.393387,73.961517 223.185608,76.207397 
	C227.035416,76.940605 230.817490,78.024261 234.640198,78.905815 
	C249.728226,82.385246 260.402893,93.029922 272.084778,102.013580 
	C277.183197,105.934410 282.063354,110.137741 287.089203,114.154472 
	C317.240936,138.252014 344.669739,165.029434 368.190277,195.741837 
	C379.437927,210.428711 391.121216,224.781845 402.593292,239.297150 
	C403.444397,240.373978 404.182892,241.539795 405.200104,242.986099 
	C393.099823,243.793610 382.424988,240.909317 371.548370,235.962326 
	C372.263885,234.391190 372.901123,232.991943 373.598053,231.461578 
	C372.351532,230.704285 370.895325,229.819580 369.341125,228.875351 
	C368.859528,230.555069 368.397339,232.167038 367.554596,235.106277 
	C359.286865,230.132660 351.285919,225.793915 343.783630,220.718094 
	C320.693756,205.096176 301.623169,185.280884 284.458496,163.439667 
	C278.846649,156.298798 272.241455,149.938568 265.446472,143.078735 
	C264.231903,143.008743 263.661377,143.081360 262.681396,143.206100 
	C263.381012,143.830215 263.795654,144.200104 264.210266,144.569977 
	C280.157318,166.264877 296.371277,187.793900 316.589325,205.756683 
	C325.408661,213.592255 335.369141,220.143433 344.774445,227.815735 
	C344.636200,228.508987 344.534912,228.664413 344.433655,228.819839 
	C328.511047,221.812393 313.892303,212.573380 300.882111,201.160400 
	C287.202026,189.159775 274.329193,176.238907 260.708221,163.297348 
	C259.973663,162.538528 259.634491,162.202515 259.198059,161.520721 
	C257.670166,159.916840 256.239563,158.658752 254.808975,157.400665 
	C254.521164,157.724335 254.233368,158.048019 253.945557,158.371704 
	C255.269775,159.979614 256.593994,161.587509 257.915710,163.368576 
	C258.084167,163.826904 258.255157,164.112076 258.426147,164.397247 
	C271.658325,184.243378 289.417725,199.483948 308.464081,213.374268 
	C313.787292,217.256454 319.422119,220.711395 324.976196,224.913940 
	C324.989227,225.629501 324.940033,225.793442 324.890869,225.957367 
	C324.090485,225.957367 323.290100,225.957367 322.078918,225.957367 
	C325.926758,229.532562 332.112061,229.038605 334.873810,235.323746 
	C330.658539,234.746292 327.537140,234.318695 324.415741,233.891083 
	C324.338928,234.123230 324.262115,234.355377 324.185303,234.587524 
	C335.480927,240.250931 346.776581,245.914322 359.443207,252.265106 
	C355.993011,247.441818 353.079315,243.368561 349.424591,238.259338 
	C355.073792,239.706894 360.031952,240.873871 364.904114,242.328705 
	C365.707031,242.568466 366.479462,244.001251 366.679626,245.000168 
	C368.708862,255.127228 380.879059,259.885712 389.104126,253.433746 
	C394.240784,249.404419 399.623932,248.147324 406.013885,249.396393 
	C408.841705,249.949158 411.935822,249.191330 414.894379,248.886261 
	C415.059631,248.869247 415.090790,247.551407 415.237579,246.102325 
	C415.610840,244.650162 415.930847,243.934677 416.250854,243.219177 
	C416.563324,243.758270 416.889374,244.289993 417.185791,244.837738 
	C418.290924,246.879898 419.386322,248.927277 420.485382,250.972702 
	C417.549896,251.983551 414.678040,253.344162 411.658569,253.893661 
	C409.280029,254.326538 406.610138,253.251617 404.265503,253.756287 
	C400.745422,254.513931 396.948273,255.419189 394.064880,257.412842 
	C387.249634,262.125061 380.115845,261.595581 372.684875,260.079407 
	C370.202698,262.997711 371.031189,264.954041 373.835297,267.392151 
	C382.718964,275.116272 391.279907,283.210876 399.997864,291.126740 
	C402.308807,293.225098 402.927643,295.325897 400.175110,298.309937 
	C386.461487,285.940247 372.881226,273.690826 359.300934,261.441437 
	C358.987793,261.634949 358.674652,261.828491 358.361511,262.022034 
	C358.569580,263.268494 358.777649,264.514954 358.993134,265.806030 
	C355.363007,265.806030 351.906799,265.806030 347.782410,265.806030 
	C349.866089,268.906891 351.784027,271.761108 354.122559,275.241211 
	C348.609222,275.483551 343.906616,275.690247 338.828339,275.913452 
	C340.883789,280.643768 342.745483,284.928162 344.764160,289.573853 
	C337.553589,289.573853 331.167908,289.573853 324.385345,289.573853 
	C327.693329,296.028351 331.026031,302.530975 334.803955,309.902435 
	C327.033447,307.870880 320.283508,306.106171 312.606476,304.099060 
	C314.657288,311.523102 316.552155,318.382660 318.785339,326.467041 
	C311.995728,322.693878 306.335815,319.548523 300.675934,316.403168 
	C300.342987,316.735657 300.010040,317.068115 299.677124,317.400604 
	C300.783630,321.761139 301.890137,326.121704 303.350037,331.874939 
	C297.188477,329.858856 291.879150,328.121674 285.853790,326.150177 
	C286.191132,331.123413 286.508362,335.800385 286.888855,341.409576 
	C280.738678,338.101898 275.186676,335.115906 269.118469,331.852295 
	C269.118469,337.355682 269.118469,342.420715 269.118469,348.889862 
	C263.803192,345.404999 259.395874,342.515442 254.269897,339.154724 
	C254.269897,344.681030 254.269897,349.690125 254.269897,356.102692 
	C248.502869,351.386719 243.812347,347.551025 238.851852,343.494598 
	C237.242920,345.734985 239.607483,349.866638 235.224762,349.582001 
	C235.321228,350.328522 235.191437,351.219940 235.558533,351.793121 
	C236.485977,353.241180 237.636948,354.546051 238.698349,355.908295 
	C238.155487,356.394897 237.612610,356.881470 237.069748,357.368042 
	C232.727753,353.855560 228.385757,350.343079 223.961334,346.763916 
	C222.497330,351.328125 221.214722,355.326813 219.624893,360.283325 
	C216.303299,356.220154 213.524323,352.820770 210.390167,348.986908 
	C209.123520,352.768768 207.988449,356.157745 206.685074,360.049255 
	C203.417175,355.581146 200.501312,351.594360 197.116943,346.967010 
	C194.985016,350.905823 193.080597,354.424316 190.693008,358.835480 
	C187.973175,353.072815 185.658707,348.169006 183.240143,343.044678 
	C180.340744,346.470215 177.471634,349.859985 173.828400,354.164337 
	C171.315445,347.938385 169.296829,342.937225 167.193146,337.725311 
	C164.060104,341.124634 161.329391,344.087433 158.125275,347.563873 
	C156.576996,342.941376 155.184998,338.785492 154.120407,335.607086 
	C150.817841,335.607086 147.017090,336.707916 145.567566,335.331909 
	C143.703186,333.562073 143.724930,329.805328 142.782166,326.346619 
	C140.032394,328.112000 137.431046,329.782104 134.437241,331.704193 
	C133.455475,326.530212 132.580765,321.920349 131.577164,316.631287 
	C129.114197,318.830261 127.122581,320.608398 124.531479,322.921783 
	C123.856178,318.818726 123.288971,315.372375 122.701370,311.802155 
	C120.841621,312.173157 119.223961,312.495880 116.949486,312.949646 
	C115.373283,320.658081 113.667068,329.121002 111.904457,337.572174 
	C111.029320,341.768127 109.953430,345.923676 109.138786,350.130524 
	C107.407173,359.072601 105.836266,368.045898 104.092819,376.985596 
	C103.531891,379.861816 102.745636,382.710358 101.793106,385.478882 
	C101.623360,385.972198 100.129463,386.009949 98.913933,386.351685 
	C99.231674,382.789001 99.267792,379.576080 99.840118,376.461700 
	C102.097054,364.180328 104.610680,351.946045 106.860062,339.663330 
	C109.049644,327.707153 111.485596,315.764832 112.859871,303.707703 
	C113.338905,299.505066 110.972450,294.978058 109.789528,290.123138 
	C108.389465,290.123138 106.515572,290.123138 104.224182,290.123138 
	C104.224182,285.791351 104.224182,281.836609 104.224182,278.080902 
	C96.964310,274.598083 96.211716,268.496826 102.033699,260.858643 
	C104.320045,257.859039 107.197739,255.310120 109.054375,253.349731 
	C103.579880,251.165207 97.382629,248.725845 91.220505,246.200775 
	C90.179420,245.774185 89.094009,245.150970 88.364037,244.323212 
	C85.341972,240.896408 82.282379,240.103943 77.320122,240.813110 
	C65.422775,242.513367 43.707233,233.349899 40.632614,214.525192 
	C40.121132,211.393585 40.076641,207.750488 41.212467,204.900070 
	C42.504673,201.657211 45.232010,198.927521 47.564007,196.167831 
	C57.919052,183.913788 68.584099,171.911392 78.600113,159.388550 
	C81.051865,156.323151 82.153282,151.720261 82.654907,147.672958 
	C83.230423,143.029556 85.316048,140.581863 89.644127,140.109787 
	C94.040062,139.630295 97.145927,137.631561 99.828514,134.122147 
	C108.302673,123.036087 117.027802,112.141861 125.652596,101.170868 
	C125.753822,101.042107 125.774467,100.804092 125.895798,100.743622 
	C130.850830,98.274353 132.849838,92.791924 137.333160,89.715752 
	C142.219223,86.363243 146.405685,81.987030 151.308853,78.664696 
	C156.146912,75.386467 161.236313,72.115616 166.692841,70.204613 
	C173.693665,67.752747 181.149368,65.884315 189.902344,70.032249 
	C175.592545,70.603134 164.020340,75.325302 153.140030,83.251160 
	C152.512115,83.423119 152.482834,83.628555 152.453568,83.833984 
	C152.666779,83.763603 152.879974,83.693230 153.093185,83.622864 
	C150.942688,85.400726 148.792175,87.178589 146.071564,88.959534 
	C145.430573,89.303970 145.359695,89.645309 145.288818,89.986649 
	C142.983917,92.342224 140.679016,94.697800 138.087494,96.882996 
	C137.684464,96.815369 137.568054,96.918114 137.451645,97.020874 
	C132.325546,102.993744 127.036293,108.835617 122.111023,114.969742 
	C114.432495,124.532829 107.118126,134.389740 99.371246,143.895416 
	C97.713699,145.929260 94.867325,146.994232 92.436722,148.592270 
	C93.159279,148.851181 94.042610,149.167694 94.925941,149.484222 
	C94.931541,149.831406 94.937134,150.178589 94.942734,150.525772 
	C92.791061,150.755569 90.639381,150.985367 87.993904,151.267899 
	C89.444298,152.009781 90.606262,152.604126 92.298302,153.469620 
	C88.664032,157.892090 85.275787,162.251221 81.639366,166.392426 
	C73.397362,175.778564 65.033112,185.057343 56.153454,194.181549 
	C55.243233,194.138519 54.898136,194.293732 54.553036,194.448944 
	C54.698391,194.633759 54.843742,194.818588 54.989098,195.003403 
	C53.814125,196.985992 52.649796,198.974976 51.461784,200.949722 
	C49.502453,204.206573 47.527809,207.454224 45.014408,210.930267 
	C44.657871,211.399612 44.846535,211.644424 45.035198,211.889236 
M203.058014,148.296051 
	C202.751175,148.151855 202.444321,148.007645 201.812225,147.094711 
	C201.186462,147.007004 200.560699,146.919312 199.934937,146.831619 
	C200.456680,147.450699 200.978424,148.069778 201.753571,149.017761 
	C201.944595,149.224869 202.170090,149.382736 202.907516,149.869675 
	C203.202682,149.828674 203.497849,149.787674 203.793015,149.746674 
	C203.596237,149.430466 203.399475,149.114243 203.058014,148.296051 
M184.897583,159.781036 
	C183.284225,156.954437 180.911118,154.248611 180.433121,151.241547 
	C180.243134,150.046356 184.251755,148.183762 186.609283,146.431488 
	C188.735596,149.123291 190.434845,151.274475 192.318970,153.659698 
	C194.732605,149.314758 186.954788,147.164490 191.483932,143.948914 
	C192.877121,142.959793 196.020020,144.435181 198.743286,144.838593 
	C198.083954,143.406509 197.389465,141.898102 196.700928,140.402588 
	C199.857391,136.312988 203.298141,134.300049 208.157791,138.054993 
	C209.617783,139.183090 211.675354,139.537796 213.459152,140.246811 
	C213.542603,140.018829 213.626053,139.790863 213.709503,139.562897 
	C210.876389,137.464401 208.043289,135.365891 205.199265,133.259323 
	C207.925110,128.178482 214.337357,125.781181 212.934219,119.051735 
	C204.794922,128.652771 193.053421,123.730125 183.338760,126.947273 
	C185.454926,127.243927 187.560486,127.196564 189.662857,127.258141 
	C191.519150,127.312508 193.371872,127.488396 195.226181,127.610634 
	C195.214539,128.274185 195.202911,128.937744 195.191269,129.601288 
	C184.337479,130.722580 173.464859,131.692169 162.638596,133.035400 
	C157.919891,133.620865 153.336563,135.469925 148.619385,135.852280 
	C142.517929,136.346817 137.205048,138.119720 132.255814,141.747086 
	C128.946487,144.172531 125.096321,145.860046 121.710602,147.753387 
	C123.546745,148.720749 125.825935,149.921555 128.078262,151.108200 
	C127.405083,153.662170 126.854836,155.749756 126.304588,157.837357 
	C126.594940,157.980057 126.885292,158.122757 127.175644,158.265457 
	C128.214767,156.219131 129.253891,154.172791 130.269852,152.172058 
	C132.976120,152.887970 135.462006,153.545578 138.367142,154.314102 
	C137.735870,157.631271 137.159668,160.659134 136.583450,163.686996 
	C138.364670,161.842026 139.505310,159.853241 140.013657,157.714188 
	C141.146133,152.948837 144.353180,155.813629 146.256592,156.322998 
	C147.103119,156.549530 147.152405,159.755219 147.583557,161.698868 
	C144.809219,161.951004 143.189880,162.098175 141.570526,162.245331 
	C141.583481,162.750839 141.596451,163.256332 141.609406,163.761841 
	C146.184525,163.761841 150.759644,163.761841 155.566254,163.761841 
	C155.853745,164.603149 156.273193,165.830551 157.010574,167.988358 
	C157.651657,166.483566 157.855667,165.938080 158.110733,165.417603 
	C159.190979,163.213257 166.445038,161.656891 166.901398,163.966171 
	C166.162201,164.563904 165.281754,165.275848 165.372833,165.202194 
	C166.691711,168.336044 167.760284,170.875107 168.862381,173.493881 
	C168.979645,171.221024 169.096161,168.962387 169.194489,167.056137 
	C175.033112,164.489243 182.164780,166.283691 186.653244,159.955536 
	C186.694824,159.716568 186.736404,159.477585 186.777985,159.238617 
	C186.383911,159.357834 185.989822,159.477051 184.897583,159.781036 
M216.953262,153.101959 
	C215.927094,152.630478 214.900940,152.158997 213.874771,151.687515 
	C213.554932,152.018188 213.235092,152.348862 212.915253,152.679535 
	C216.016846,158.408356 218.886536,164.280334 222.302948,169.814819 
	C224.516525,173.400742 227.197205,176.870148 230.335678,179.634369 
	C231.719345,180.853027 235.279449,181.080688 236.902908,180.133118 
	C238.545395,179.174454 240.148331,175.944519 239.739319,174.179840 
	C239.090759,171.381622 237.249481,168.386398 235.033066,166.518311 
	C229.503754,161.857971 223.479187,157.785263 216.953262,153.101959 
M109.742096,284.019958 
	C115.134346,276.810455 120.314026,269.427887 125.992638,262.451508 
	C129.857468,257.703430 131.771423,252.385773 133.017029,246.622818 
	C129.068481,253.231918 124.266235,258.751373 117.850082,263.126801 
	C110.685463,268.012695 107.870331,275.539856 107.555260,284.033112 
	C107.550224,284.168945 108.647270,284.345673 109.742096,284.019958 
M120.070343,288.538391 
	C126.330360,277.931396 132.590363,267.324371 138.850388,256.717377 
	C132.171219,262.284454 126.183983,268.159607 120.928551,274.629211 
	C116.312630,280.311554 113.850555,287.004761 115.492783,295.383148 
	C117.111275,292.866089 118.332863,290.966309 120.070343,288.538391 
M120.989235,301.843475 
	C122.578384,305.064026 123.355492,302.821930 124.192642,301.348083 
	C128.472885,293.812378 132.889877,286.348572 136.945297,278.693390 
	C139.150482,274.530823 140.731476,270.037567 142.593994,265.693481 
	C137.695190,270.382568 134.256012,275.828217 129.962448,280.486359 
	C124.492981,286.420227 121.652214,293.187195 120.989235,301.843475 
M146.154800,291.630524 
	C140.786423,301.353699 133.795364,310.607056 136.517517,322.672882 
	C137.136475,322.889496 137.755447,323.106110 138.374420,323.322723 
	C143.303955,309.990448 148.233490,296.658142 153.163025,283.325836 
	C152.789612,283.118835 152.416199,282.911865 152.042801,282.704865 
	C150.203110,285.465912 148.363434,288.226929 146.154800,291.630524 
M131.243591,306.787079 
	C136.260712,296.418610 141.277832,286.050140 146.294952,275.681641 
	C132.779678,287.658630 124.085693,302.121033 127.061142,312.944885 
	C128.592300,310.820831 129.790741,309.158325 131.243591,306.787079 
M180.702545,311.129761 
	C178.836731,317.373718 177.088196,323.656891 175.022552,329.834015 
	C174.507050,331.375549 172.969147,332.575195 172.217941,333.529541 
	C173.351807,336.948212 174.557037,340.582001 175.829620,344.418915 
	C180.883423,338.129364 184.304565,317.872650 182.393387,305.987335 
	C181.767731,307.688995 181.283249,309.006683 180.702545,311.129761 
M223.179550,320.404663 
	C225.316147,330.163025 225.369461,340.621979 233.105576,348.532654 
	C235.703735,334.159210 226.356613,323.040436 222.918823,310.315338 
	C222.498917,310.399658 222.078995,310.484009 221.659088,310.568329 
	C222.120056,313.560608 222.581039,316.552917 223.179550,320.404663 
M244.972870,342.712708 
	C248.122406,345.580414 248.105865,343.008118 247.946259,340.863464 
	C247.005035,328.216461 239.417313,318.289001 234.298187,307.325653 
	C236.778519,319.210388 236.994019,331.735596 244.972870,342.712708 
M290.968140,297.550781 
	C296.234253,304.342987 301.019592,311.662750 309.844849,315.148132 
	C308.034088,306.502441 288.259491,286.249603 282.477051,286.549530 
	C285.123016,289.973694 287.828491,293.474884 290.968140,297.550781 
M277.261353,298.231049 
	C275.200012,296.105530 273.138702,293.980011 271.077362,291.854462 
	C270.691437,292.219116 270.305481,292.583740 269.919525,292.948364 
	C277.772034,303.915955 283.077942,316.914825 296.030365,324.876617 
	C293.345001,313.074249 284.695740,306.511078 277.261353,298.231049 
M251.731796,308.779388 
	C250.493042,307.080231 249.254288,305.381104 248.015533,303.681946 
	C247.602814,303.952148 247.190094,304.222351 246.777359,304.492584 
	C252.471680,315.513855 251.537033,329.738373 263.867554,337.608765 
	C262.569672,331.699951 260.569366,326.089050 258.146423,320.666992 
	C256.414246,316.790710 254.115295,313.167664 251.731796,308.779388 
M157.862137,298.280823 
	C152.949768,307.847321 146.114426,316.883057 149.050110,329.839813 
	C158.004257,318.815308 157.619156,305.958038 160.548203,294.084686 
	C159.732330,295.245483 158.916458,296.406311 157.862137,298.280823 
M327.534607,276.949066 
	C319.381439,271.696991 310.622406,267.805695 301.322693,265.080200 
	C311.711548,271.949310 319.941071,282.572266 333.220459,284.241302 
	C333.780609,283.583588 334.340729,282.925842 334.900879,282.268127 
	C332.673157,280.579041 330.445404,278.889984 327.534607,276.949066 
M332.048401,253.399261 
	C339.978516,258.531738 343.047607,259.527802 349.990662,259.222290 
	C344.775665,252.264740 322.955627,242.153885 316.333771,243.671432 
	C321.383392,246.812057 326.393524,249.928131 332.048401,253.399261 
M297.512451,276.980133 
	C295.825653,275.892365 294.138855,274.804626 292.452057,273.716888 
	C301.201691,283.606201 307.393372,296.077759 321.892365,301.417694 
	C316.508820,289.664917 306.424225,284.395691 297.512451,276.980133 
M168.267059,316.868286 
	C168.969040,312.756195 169.671005,308.644104 170.372971,304.532043 
	C169.891479,304.427429 169.409988,304.322815 168.928497,304.218231 
	C164.799561,315.391785 157.056961,325.513763 159.367294,339.171112 
	C166.160934,333.151398 167.008255,325.395294 168.267059,316.868286 
M189.951065,315.381287 
	C188.759354,326.263123 185.688034,337.242554 191.465668,348.612915 
	C196.712234,334.828156 192.509018,322.134918 191.696228,309.356781 
	C191.125763,309.361664 190.555298,309.366547 189.984833,309.371429 
	C189.984833,311.089752 189.984833,312.808105 189.951065,315.381287 
M272.993988,325.484070 
	C274.767151,327.071167 276.540344,328.658264 278.800507,330.681244 
	C278.609039,321.834869 265.450348,300.416504 258.793915,297.990845 
	C263.531342,307.255981 268.042572,316.078735 272.993988,325.484070 
M211.931091,317.690430 
	C212.374451,328.874847 210.507797,340.460999 217.779495,351.401703 
	C221.610611,336.918365 215.205170,324.863892 211.796127,312.330597 
	C211.796127,313.806946 211.796127,315.283325 211.931091,317.690430 
M125.297523,250.689117 
	C125.543541,249.607559 125.789558,248.526001 125.868401,248.179398 
	C121.359833,250.496140 116.845604,252.731674 112.409950,255.113571 
	C104.643105,259.284271 100.724823,266.743652 102.709366,272.118561 
	C109.663544,265.884247 116.827446,259.474670 123.964386,253.035172 
	C124.441338,252.604843 124.713898,251.947937 125.297523,250.689117 
M327.869537,264.699219 
	C332.513336,266.693695 337.157135,268.688171 341.800934,270.682678 
	C342.072998,270.063782 342.345032,269.444885 342.617096,268.826019 
	C334.771027,258.724670 322.434387,256.889282 311.894348,251.746811 
	C311.693115,252.096313 311.491913,252.445816 311.290710,252.795319 
	C316.623566,256.612213 321.956421,260.429108 327.869537,264.699219 
M202.077927,318.696533 
	C202.073364,329.139008 198.548950,339.881897 204.656219,349.926971 
	C208.546494,343.248901 207.554764,323.488281 202.446701,312.223999 
	C202.293442,314.681396 202.197403,316.221466 202.077927,318.696533 
M289.425812,242.081970 
	C288.894043,242.992447 287.714905,244.484024 287.930206,244.723877 
	C290.181061,247.231384 292.586914,249.617157 295.131866,251.827057 
	C295.584991,252.220535 296.872467,251.653152 297.774689,251.529449 
	C298.056732,251.113388 298.338745,250.697342 298.620789,250.281281 
	C295.776642,247.639694 292.932495,244.998123 289.425812,242.081970 
M161.190277,233.875488 
	C161.741058,236.687744 159.217438,240.804962 164.204681,242.133224 
	C164.204681,236.819794 164.204681,232.057358 164.204681,227.294922 
	C163.738846,227.266022 163.273010,227.237122 162.807175,227.208221 
	C162.278778,229.145264 161.750381,231.082306 161.190277,233.875488 
M282.817169,213.792511 
	C284.036499,215.241653 285.255859,216.690796 286.681519,218.385132 
	C289.796661,214.500595 286.660614,212.018738 284.792603,210.270020 
	C283.333374,208.903961 281.324524,205.135330 277.811829,208.542862 
	C279.376831,210.215393 280.826691,211.764832 282.817169,213.792511 
M263.004303,221.210205 
	C265.390686,224.646622 267.777100,228.083023 270.163513,231.519424 
	C270.920959,231.090134 271.678406,230.660828 272.435883,230.231522 
	C271.467072,228.167526 270.991547,225.499481 269.399170,224.198975 
	C267.584137,222.716629 267.034210,218.480362 263.004303,221.210205 
M221.242203,246.838760 
	C220.898422,244.927002 220.554657,243.015244 220.210876,241.103500 
	C219.721802,241.190811 219.232712,241.278122 218.743637,241.365433 
	C217.117020,245.936752 217.362595,250.211609 221.479446,253.928436 
	C222.290405,253.288315 223.137054,252.620010 223.989685,251.946991 
	C223.130707,250.360977 222.366928,248.950729 221.242203,246.838760 
M143.371719,118.265762 
	C142.931335,121.052872 142.490967,123.839973 142.050583,126.627083 
	C147.332260,123.842216 148.463715,117.090393 145.578110,114.784660 
	C145.012924,115.749947 144.441788,116.725380 143.371719,118.265762 
M320.318207,186.200333 
	C322.087646,187.586044 323.857086,188.971741 325.776978,190.475281 
	C327.122192,186.443069 322.086365,181.558075 316.964294,181.483871 
	C317.977783,183.027664 318.868286,184.384094 320.318207,186.200333 
M338.181976,205.074265 
	C337.137451,205.870895 336.092926,206.667526 334.996307,207.503876 
	C340.870972,212.755051 343.762207,213.673416 346.867493,211.521042 
	C344.222504,209.437592 341.577484,207.354126 338.181976,205.074265 
M194.814270,183.159515 
	C193.313705,179.616028 194.552811,174.897842 189.986740,171.093719 
	C189.986740,174.651703 189.425568,176.979385 190.141342,178.806946 
	C190.887711,180.712585 192.865021,182.136124 194.814270,183.159515 
M225.996735,122.777931 
	C225.062256,122.610657 223.484222,122.037994 223.294205,122.339653 
	C221.640915,124.964302 225.173538,131.850784 228.520737,132.652786 
	C228.671341,132.205093 229.064697,131.665604 228.939362,131.307785 
	C228.026779,128.702515 227.009842,126.133781 225.996735,122.777931 
M339.910095,181.789352 
	C340.494446,181.658829 341.078766,181.528305 341.663116,181.397797 
	C340.308929,178.310242 338.954742,175.222672 337.600586,172.135086 
	C336.880554,172.984634 335.375946,174.176300 335.572174,174.626312 
	C336.585419,176.949966 338.034241,179.083694 339.910095,181.789352 
M253.823822,268.291473 
	C253.086670,267.231079 252.349533,266.170715 251.188782,264.500977 
	C248.090790,271.002563 253.772675,272.621704 255.366409,276.734863 
	C258.720459,272.795685 255.427689,271.140259 253.823822,268.291473 
M176.698090,110.951607 
	C175.819931,111.130211 174.941757,111.308823 174.063599,111.487419 
	C174.791534,114.084351 175.343399,116.756058 176.388809,119.218193 
	C176.610764,119.740959 178.632767,119.499443 179.970001,119.623451 
	C178.772766,116.432907 177.878433,114.049606 176.698090,110.951607 
M306.660217,226.895355 
	C308.104553,227.992401 309.548859,229.089447 311.091400,230.261078 
	C313.411530,226.377258 310.431458,225.156601 308.533325,223.698349 
	C307.561768,222.951935 306.084595,222.863647 304.835938,222.477905 
	C305.267090,223.783600 305.698212,225.089294 306.660217,226.895355 
M189.052383,226.083984 
	C189.395325,228.950195 187.422180,232.828705 192.916504,234.113541 
	C192.916504,231.174927 193.031387,228.641846 192.858444,226.128586 
	C192.791779,225.159592 192.071121,224.235611 191.648438,223.291138 
	C190.865143,223.963409 190.081863,224.635696 189.052383,226.083984 
M280.009949,261.365814 
	C280.844727,261.771179 281.671051,262.446899 282.517670,262.473328 
	C282.973602,262.487579 283.996307,261.169220 283.855072,260.827789 
	C282.738312,258.127625 281.402771,255.517960 280.134491,252.880463 
	C279.382904,253.194336 278.631287,253.508209 277.879669,253.822083 
	C278.573792,256.077789 279.267914,258.333496 280.009949,261.365814 
M158.122025,261.020355 
	C158.266220,259.427094 158.410416,257.833801 158.554611,256.240540 
	C154.193710,259.570404 154.001419,265.030426 157.543640,268.474670 
	C157.762863,265.911804 157.935486,263.893616 158.122025,261.020355 
M223.529175,222.005829 
	C225.493912,219.020493 224.033218,216.091385 218.348526,212.820740 
	C218.693298,216.904327 219.589661,219.933167 223.529175,222.005829 
M313.800140,157.768188 
	C312.649658,156.837433 311.499146,155.906677 310.348663,154.975937 
	C309.792297,155.440704 309.235962,155.905487 308.679596,156.370270 
	C310.143097,158.206436 311.440125,160.222336 313.143341,161.799606 
	C313.941925,162.539124 315.523804,162.432816 316.750671,162.709824 
	C316.881500,162.312897 317.012299,161.915970 317.143127,161.519028 
	C316.183838,160.451584 315.224579,159.384140 313.800140,157.768188 
M356.831299,205.751541 
	C358.182343,206.541595 359.533386,207.331650 360.884399,208.121704 
	C361.326813,207.814377 361.769196,207.507050 362.211578,207.199707 
	C361.230988,205.590515 360.538330,203.647385 359.180054,202.476166 
	C358.063354,201.513229 356.156433,201.466644 354.599762,201.013901 
	C354.372253,201.498199 354.144745,201.982498 353.917236,202.466782 
	C354.693298,203.416550 355.469330,204.366333 356.831299,205.751541 
M173.044800,288.294800 
	C172.877838,286.173462 172.710892,284.052155 172.543930,281.930817 
	C171.772095,281.908203 171.000275,281.885620 170.228439,281.863007 
	C170.035767,284.628296 169.715073,287.395233 169.751114,290.157532 
	C169.758957,290.758698 171.043839,291.343231 171.740555,291.935425 
	C172.175095,291.008484 172.609619,290.081543 173.044800,288.294800 
M191.833893,94.889931 
	C192.340500,94.004578 193.500443,92.708107 193.245026,92.302254 
	C191.848892,90.083565 190.105057,88.083672 188.372604,85.870438 
	C186.345886,90.089539 186.395905,90.225960 191.833893,94.889931 
M217.944092,188.616501 
	C219.148560,189.062119 220.353043,189.507721 221.557526,189.953339 
	C221.723450,189.486511 221.889389,189.019699 222.055328,188.552872 
	C220.453125,185.957657 218.850922,183.362427 217.248718,180.767212 
	C216.665009,181.087082 216.081284,181.406967 215.497574,181.726837 
	C216.164871,183.803497 216.832169,185.880173 217.944092,188.616501 
M218.885254,105.510696 
	C219.008636,107.086998 218.550049,109.225800 219.397339,110.102402 
	C220.551056,111.296059 222.701508,111.526306 224.424561,112.169662 
	C224.844315,111.461700 225.264084,110.753731 225.683838,110.045769 
	C223.636810,108.402000 221.589798,106.758224 218.885254,105.510696 
M249.008606,115.472794 
	C247.938522,115.160271 246.868439,114.847740 245.798355,114.535210 
	C245.937622,115.695328 245.664383,117.221542 246.301697,117.939667 
	C247.645599,119.453995 249.466248,120.545204 251.091293,121.810028 
	C250.514328,119.918449 249.937363,118.026878 249.008606,115.472794 
M200.993423,252.079559 
	C201.691956,254.670258 199.416153,258.173492 203.229904,260.324005 
	C205.216263,251.401566 205.097961,250.330704 201.995438,248.467239 
	C201.659988,249.412567 201.333511,250.332626 200.993423,252.079559 
M259.759613,198.746582 
	C261.264221,199.537796 262.768829,200.329010 264.273438,201.120224 
	C264.578674,200.615097 264.883942,200.109955 265.189178,199.604813 
	C263.412872,197.348999 261.636566,195.093201 259.860260,192.837387 
	C259.294739,193.128830 258.729218,193.420288 258.163696,193.711731 
	C258.522827,195.216919 258.881989,196.722122 259.759613,198.746582 
M187.059631,200.426727 
	C187.936462,200.920334 188.813293,201.413925 190.867004,202.570038 
	C189.386414,198.280975 188.320389,195.192795 187.009033,191.393951 
	C184.083145,194.798462 184.395157,197.313492 187.059631,200.426727 
M183.867096,252.248779 
	C183.222183,252.007568 182.236298,251.372070 181.986710,251.587952 
	C180.110352,253.210770 180.721619,260.649231 183.997482,264.110657 
	C183.997482,259.630341 183.997482,256.372406 183.867096,252.248779 
M240.005264,211.510925 
	C241.388443,213.644424 242.956390,213.608429 242.850845,211.018555 
	C242.752945,208.615875 241.329712,206.267212 240.490021,203.894760 
	C239.670288,204.152542 238.850571,204.410324 238.030838,204.668106 
	C238.586761,206.703308 239.142685,208.738510 240.005264,211.510925 
M288.299652,127.983040 
	C290.907379,127.972809 292.096191,127.022331 289.705444,124.984421 
	C288.174927,123.679771 286.088989,123.026657 283.975342,121.939056 
	C282.083069,126.289055 283.665741,127.794296 288.299652,127.983040 
M160.175720,102.222443 
	C159.191742,104.924217 159.061356,107.351143 162.231033,109.614670 
	C162.966278,106.753044 163.848221,104.748550 163.914551,102.717415 
	C164.006973,99.887207 162.699310,99.479111 160.175720,102.222443 
M233.703217,92.961113 
	C233.942932,91.434547 234.887314,89.437126 234.256134,88.492462 
	C233.324265,87.097801 231.271561,86.452026 229.696167,85.487328 
	C229.327148,85.926788 228.958130,86.366241 228.589111,86.805702 
	C230.040070,88.804955 231.491013,90.804207 233.703217,92.961113 
M202.942200,290.420563 
	C202.352905,287.930725 201.763611,285.440887 201.174316,282.951050 
	C200.568497,283.018555 199.962662,283.086060 199.356842,283.153534 
	C199.246796,285.507782 198.922882,287.887695 199.200119,290.195404 
	C199.258316,290.679688 201.528427,290.898163 202.942200,290.420563 
M220.993423,280.326385 
	C220.949448,283.598755 221.160568,286.620209 226.093491,285.640930 
	C225.280762,283.027710 224.736389,280.787048 223.880585,278.672394 
	C223.122391,276.798981 222.969513,276.860840 220.993423,280.326385 
M262.552063,108.003906 
	C263.329132,107.584419 264.749634,107.203346 264.777344,106.739113 
	C264.939819,104.017517 260.923035,101.410591 257.008179,102.275948 
	C258.771210,104.349136 260.274689,106.117088 262.552063,108.003906 
M321.873108,233.012589 
	C322.200684,233.609909 322.528290,234.207245 322.855865,234.804550 
	C323.309601,234.505310 323.763367,234.206070 324.217133,233.906845 
	C323.740906,233.602951 323.264648,233.299057 321.873108,233.012589 
z"/>
<path fill="white" opacity="1.000000" stroke="none" 
	d="
M373.174255,133.843689 
	C385.675629,140.935593 397.671631,148.197205 410.001617,154.838715 
	C416.304138,158.233521 423.205139,160.517227 430.203827,163.457825 
	C422.699158,167.866440 414.741425,169.358978 406.508331,169.984070 
	C393.175323,170.996384 381.368134,165.867279 369.497650,160.949799 
	C363.270538,158.370132 357.001251,155.884659 350.846161,153.143036 
	C348.732666,152.201645 347.036591,150.299988 344.908417,149.422485 
	C343.385864,148.794724 341.157074,149.704880 339.769867,148.954956 
	C334.481415,146.096039 328.948212,143.403366 324.333862,139.635330 
	C307.473145,125.867065 290.934265,111.704216 274.301971,97.657089 
	C271.178650,95.019257 268.183136,92.230171 265.382751,88.713371 
	C270.691254,90.773743 276.007751,92.813751 281.306854,94.898026 
	C303.291321,103.545135 325.364166,111.978210 347.205811,120.972557 
	C356.002686,124.595085 364.288635,129.458191 373.174255,133.843689 
M401.503754,156.048080 
	C399.812988,156.540665 398.122192,157.033234 396.792572,157.420609 
	C397.469757,159.895279 398.035889,162.560883 398.981689,165.084167 
	C399.295929,165.922501 400.584991,166.395447 401.428375,167.035446 
	C401.893646,165.968491 402.501526,164.937836 402.785034,163.824600 
	C403.083221,162.653641 403.071075,161.403641 403.194519,160.188187 
	C403.490143,160.197113 403.785767,160.206055 404.081390,160.214981 
	C403.475464,158.907120 402.869537,157.599258 401.503754,156.048080 
M325.521454,117.049271 
	C322.626801,116.600342 321.024689,111.590187 315.755310,114.710342 
	C319.224609,116.988602 321.691132,118.754272 324.313599,120.245827 
	C325.152496,120.722977 326.404175,120.474312 327.467010,120.557739 
	C327.034424,119.502556 326.601868,118.447365 325.521454,117.049271 
M322.727051,126.077499 
	C322.231720,126.482147 321.736359,126.886795 321.240997,127.291435 
	C323.180176,128.855972 324.948547,130.759735 327.123962,131.855026 
	C328.384491,132.489670 330.299927,131.823441 331.920654,131.742615 
	C331.979370,131.173813 332.038116,130.605011 332.096863,130.036209 
	C329.226288,128.719330 326.355682,127.402458 322.727051,126.077499 
M297.624146,109.070381 
	C299.679382,109.303925 301.734619,109.537468 303.789856,109.771011 
	C303.876770,109.220123 303.963684,108.669228 304.050568,108.118340 
	C302.211823,107.269203 300.422333,106.277328 298.517395,105.619980 
	C297.196899,105.164299 295.717346,105.169502 294.308838,104.968781 
	C295.173950,106.236168 296.039062,107.503563 297.624146,109.070381 
M373.645294,145.465744 
	C371.808228,143.173187 369.971161,140.880646 367.796478,138.166779 
	C365.490845,143.124924 367.799988,145.746582 373.645294,145.465744 
M360.658325,150.003052 
	C361.189178,149.131088 362.355560,147.717850 362.148315,147.474533 
	C360.744293,145.826050 359.050110,144.424728 357.136749,142.653839 
	C354.666748,147.125092 358.647186,147.834854 360.658325,150.003052 
z"/>
<path fill="white" opacity="1.000000" stroke="none" 
	d="
M144.008072,387.433197 
	C147.674194,390.734222 151.490356,393.886353 154.960083,397.382294 
	C157.858414,400.302551 160.351120,403.625366 163.422577,407.239532 
	C174.111496,404.529846 185.121628,401.984344 195.964371,398.858215 
	C199.811935,397.748871 202.631332,398.470337 205.582764,400.671204 
	C214.435104,407.272247 223.336014,413.808167 232.253815,420.395966 
	C239.583801,411.362885 246.835526,402.426208 254.259415,393.277374 
	C263.679962,397.017487 272.919220,400.685638 282.709869,404.572662 
	C285.092957,398.758881 287.782532,392.991272 289.772308,386.991638 
	C290.698669,384.198395 292.106049,383.621155 294.468323,384.043243 
	C303.173157,385.598511 311.865021,387.226471 320.884033,388.886444 
	C321.640961,387.049072 322.424896,385.146118 323.259064,383.121246 
	C324.237122,383.321808 325.334747,383.546875 326.099854,383.703766 
	C326.389099,385.759338 326.646088,387.585846 326.938599,389.664673 
	C326.153137,389.885651 325.277008,390.132172 324.713959,390.290619 
	C325.096130,391.406799 325.482269,392.534576 325.868408,393.662354 
	C325.181305,393.656036 324.482239,393.730560 323.808960,393.630859 
	C317.086243,392.635834 310.366821,391.618225 303.649628,390.586578 
	C303.006744,390.487823 302.395111,390.180695 301.752014,390.088684 
	C294.914337,389.110077 294.164978,389.600281 292.027466,396.163727 
	C290.711761,400.203552 289.429413,404.258148 287.959076,408.242249 
	C287.076050,410.634857 285.890381,411.859131 282.779053,410.431519 
	C275.170532,406.940399 267.200317,404.231445 259.626373,400.674011 
	C256.890289,399.388885 255.805832,400.169647 254.331375,402.048676 
	C249.327225,408.425873 244.317886,414.801544 239.166656,421.059326 
	C237.580734,422.985931 235.534164,424.533386 233.058990,426.854034 
	C226.556854,422.137909 218.944794,417.451050 212.351074,411.613831 
	C204.846436,404.970245 197.207703,402.927979 187.640228,406.230194 
	C180.230560,408.787598 172.515625,410.534485 164.838455,412.186554 
	C163.100693,412.560516 160.321823,411.628204 159.114685,410.302429 
	C154.743179,405.501282 150.695007,400.381470 146.831299,395.155304 
	C145.473267,393.318359 144.997940,390.828827 144.079971,388.140686 
	C144.040375,387.644135 144.008072,387.433197 144.008072,387.433197 
z"/>
<path fill="white" opacity="1.000000" stroke="none" 
	d="
M78.401245,183.732025 
	C76.421593,181.985168 75.813957,180.567581 77.716766,178.552246 
	C80.781525,175.306259 83.941948,172.052597 86.409821,168.365677 
	C89.545418,163.681229 93.299698,162.753906 98.585381,163.972229 
	C104.300964,165.289627 110.405479,165.093307 115.999008,166.726379 
	C124.607338,169.239624 130.931625,174.978775 134.835480,183.274338 
	C120.787666,192.816208 105.099709,194.874725 88.754883,193.930786 
	C87.524231,193.859726 86.078392,192.957611 85.212631,192.005371 
	C82.891212,189.452057 80.830612,186.661652 78.401245,183.732025 
z"/>
<path fill="white" opacity="1.000000" stroke="none" 
	d="
M86.224121,232.755997 
	C83.259521,228.208740 80.378708,224.012894 77.898315,219.592377 
	C77.041626,218.065598 77.181084,215.979858 76.865509,214.149445 
	C79.199020,213.824219 81.696350,212.801544 83.835442,213.303986 
	C90.361732,214.836929 96.697678,217.165451 103.203804,218.802353 
	C114.124115,221.549881 125.264969,222.444916 136.514587,221.993454 
	C137.465744,221.955276 138.419754,221.988403 139.985352,221.988403 
	C136.770386,228.609390 133.062622,233.748016 126.293114,236.283966 
	C122.743217,237.613785 119.640739,240.318222 116.037437,241.265961 
	C113.342247,241.974869 110.169128,240.866730 107.208817,240.567642 
	C107.093391,239.982544 106.977966,239.397430 106.862549,238.812332 
	C105.988647,239.850449 105.114746,240.888580 104.224609,241.945999 
	C97.265961,241.099213 91.514267,237.759979 86.224121,232.755997 
z"/>
<path fill="white" opacity="1.000000" stroke="none" 
	d="
M62.538155,214.802185 
	C69.152145,213.223404 72.928986,215.190170 75.253067,221.167557 
	C76.310417,223.887039 77.731995,226.464905 79.497337,230.177368 
	C74.491203,229.466599 70.202805,229.094925 66.025078,228.204178 
	C60.872898,227.105682 56.512356,224.719421 53.383549,220.091553 
	C49.733372,214.692505 49.201084,211.815414 53.334904,206.829620 
	C59.533375,199.353638 66.170265,192.241165 73.255989,184.258408 
	C76.909157,189.121475 80.733536,193.564117 83.765327,198.494186 
	C85.552864,201.400940 84.483093,204.947952 81.220779,206.379745 
	C77.408859,208.052734 73.185417,208.768982 69.181694,210.030945 
	C66.629616,210.835358 64.152283,211.876907 61.368240,213.420624 
	C61.095043,214.607407 61.095043,215.185715 61.095043,216.360229 
	C61.815617,215.582260 62.176888,215.192230 62.538155,214.802185 
z"/>
<path fill="white" opacity="1.000000" stroke="none" 
	d="
M344.986938,108.041290 
	C359.256927,115.124832 373.894348,121.566933 387.694275,129.471146 
	C401.677429,137.480316 414.401062,147.725388 430.157501,152.450226 
	C431.898071,152.972153 433.632812,153.763611 435.405121,153.874954 
	C438.641083,154.078217 440.416779,155.480759 440.593903,158.984680 
	C429.670837,159.098236 419.947388,154.867508 410.712158,149.848419 
	C398.101105,142.994644 386.031586,135.151047 373.507202,128.128998 
	C364.718781,123.201607 355.558746,118.937096 346.259033,113.909210 
	C345.635742,113.300140 345.318115,113.158409 345.000488,113.016685 
	C342.003937,112.236519 339.007355,111.456345 335.890778,109.888458 
	C335.294861,108.034836 334.818970,106.968918 334.343079,105.903000 
	C336.997955,106.201530 339.652802,106.500053 342.643494,107.318626 
	C343.220917,108.346306 343.462524,108.853943 343.704102,109.361588 
	C344.131714,108.921494 344.559326,108.481392 344.986938,108.041290 
z"/>
<path fill="white" opacity="1.000000" stroke="none" 
	d="
M350.722351,360.703308 
	C346.530121,360.638031 342.420288,360.785645 338.727631,359.616028 
	C337.102722,359.101379 336.025543,357.372498 334.136810,358.935577 
	C333.102600,357.677185 331.338959,356.505707 331.176697,355.143463 
	C330.760193,351.646454 331.101349,348.064117 331.052948,344.517090 
	C330.991425,340.011627 330.904083,335.504700 330.705444,331.003784 
	C330.623688,329.151672 330.223053,327.313660 328.983429,325.237030 
	C327.876099,330.793823 326.768738,336.350616 325.350311,343.468506 
	C324.437866,341.207092 323.519806,340.033539 323.598206,338.930908 
	C323.899902,334.688629 324.793945,330.475830 324.900146,326.237885 
	C324.948944,324.291565 323.685242,322.312347 322.725677,319.492981 
	C326.347473,320.259796 330.355957,320.961426 334.235931,322.100830 
	C334.769653,322.257599 334.816010,324.585938 334.830048,325.911591 
	C334.890930,331.663330 334.856171,337.416046 334.856171,343.168427 
	C335.404144,343.273376 335.952087,343.378296 336.500061,343.483215 
	C338.354187,338.586243 340.487457,333.772980 341.988190,328.769958 
	C343.673370,323.151978 347.161530,322.477905 351.957703,324.223267 
	C353.306488,324.714081 354.623291,325.292603 355.254303,325.547729 
	C349.581635,336.986938 344.526520,347.873047 350.722351,360.703308 
M340.988312,343.664154 
	C339.716949,347.519928 338.445587,351.375732 337.174225,355.231506 
	C337.759399,355.598541 338.344574,355.965546 338.929749,356.332581 
	C340.477509,355.345428 343.137085,354.580933 343.386841,353.333801 
	C344.694336,346.805695 345.390778,340.155212 346.299652,333.547272 
	C345.789795,333.451355 345.279938,333.355438 344.770081,333.259521 
	C343.652496,336.520782 342.534882,339.782074 340.988312,343.664154 
z"/>
<path fill="white" opacity="1.000000" stroke="none" 
	d="
M403.272614,230.945450 
	C400.940887,227.973801 398.645416,224.972839 396.271179,222.035553 
	C385.062592,208.168823 373.832520,194.319519 362.291626,180.070831 
	C391.472473,183.668900 417.681641,175.591888 443.123260,162.005615 
	C445.010590,164.525848 442.153687,166.215881 440.016174,167.432877 
	C433.210907,171.307495 426.647797,175.439316 418.474670,176.685776 
	C411.488007,177.751282 404.912201,181.340149 397.937714,182.700500 
	C389.394684,184.366760 380.625702,184.874557 372.398499,185.831558 
	C382.847565,198.725647 393.932953,212.404968 404.925964,226.726501 
	C404.313263,228.560944 403.792938,229.753189 403.272614,230.945450 
z"/>
<path fill="white" opacity="1.000000" stroke="none" 
	d="
M353.773499,309.522156 
	C355.034912,307.701202 356.722382,306.229370 356.883179,304.606293 
	C357.654816,296.817841 357.861786,288.972839 358.665405,281.188812 
	C358.802612,279.859802 361.243896,277.521484 361.962219,277.747009 
	C363.713776,278.296936 365.630554,279.782379 366.502808,281.414001 
	C369.984650,287.926941 372.892181,294.750488 376.460815,301.211304 
	C377.548737,303.180939 380.076233,304.355347 382.345642,305.546906 
	C383.772583,307.884827 382.977631,309.681610 379.880524,309.860107 
	C376.548004,310.052185 373.194092,309.865692 369.860016,310.042389 
	C368.702026,310.103729 367.592499,310.821625 366.431305,311.127686 
	C362.685822,312.114990 358.969604,313.490601 355.158783,313.862030 
	C352.259613,314.144592 351.380676,312.269470 353.773499,309.522156 
M363.147034,303.493713 
	C364.219879,304.652039 365.183807,306.611969 366.391754,306.776123 
	C368.096680,307.007782 369.982178,305.911011 371.790466,305.382172 
	C371.279480,304.278625 370.836700,302.276764 370.245331,302.231873 
	C368.046844,302.064972 365.799469,302.541626 363.147034,303.493713 
M364.233551,297.495270 
	C365.474548,297.318024 366.715576,297.140778 367.956573,296.963562 
	C367.014160,294.850281 366.071747,292.736969 364.766174,289.809265 
	C362.348999,292.929962 358.153168,294.548767 364.233551,297.495270 
z"/>
<path fill="white" opacity="1.000000" stroke="none" 
	d="
M264.089813,384.995422 
	C263.032104,384.209534 262.369873,383.505646 261.028442,382.079834 
	C263.224304,381.867462 264.496246,382.081024 265.367401,381.587372 
	C266.987976,380.668945 269.620148,379.305389 269.590454,378.186615 
	C269.534912,376.094086 267.879120,374.044067 266.889069,371.976379 
	C265.003693,373.215820 262.513702,374.065887 261.396820,375.800232 
	C260.192963,377.669647 260.274841,380.367035 259.569641,383.806122 
	C255.810043,383.054749 251.765411,382.246368 247.176361,381.329224 
	C250.891037,378.079712 253.473984,375.761566 256.121857,373.520111 
	C258.842102,371.217407 257.956116,369.177582 256.148834,366.714722 
	C253.602585,363.244720 254.773392,358.848236 258.417725,356.821777 
	C263.106018,354.214813 278.256897,357.361084 281.896729,361.952301 
	C277.034332,362.699402 275.921753,366.147247 275.398956,370.282532 
	C275.163696,372.143402 273.682861,373.832642 273.369263,375.700836 
	C272.834015,378.889496 270.858459,382.668671 275.902252,384.438293 
	C276.659973,384.704132 277.007050,386.140594 278.362274,388.399048 
	C272.811279,387.070374 268.648285,386.073914 264.089813,384.995422 
M265.434998,368.184967 
	C267.467560,367.694916 269.892761,367.694214 271.368408,366.510132 
	C272.115570,365.910522 271.747620,362.145996 270.832886,361.611755 
	C268.783417,360.414673 266.043213,359.850525 263.650024,360.010803 
	C262.345367,360.098145 261.175018,362.191498 259.944092,363.380157 
	C261.530212,364.910034 263.116364,366.439911 265.434998,368.184967 
z"/>
<path fill="white" opacity="1.000000" stroke="none" 
	d="
M203.945923,380.549713 
	C206.120773,388.426270 212.211731,391.995270 218.229523,395.758881 
	C221.684082,397.919464 224.906143,396.105530 225.564072,393.779785 
	C226.226395,391.438446 224.184006,388.251282 222.981735,385.590637 
	C222.864380,385.330902 220.324631,386.165741 218.861206,386.503601 
	C218.473389,380.899445 221.424789,377.816895 229.132751,375.465698 
	C229.369812,375.683990 229.815994,375.915161 229.806274,376.125275 
	C229.664413,379.191284 231.296936,383.496521 233.425858,386.959015 
	C234.410965,388.561188 234.655548,390.618652 234.976837,391.643463 
	C233.323349,393.770599 232.044586,395.135742 231.091080,396.699219 
	C228.945251,400.217804 222.345154,402.025940 217.469452,399.504639 
	C209.798889,395.538055 203.613998,389.815735 200.488968,381.494537 
	C198.389313,375.903595 201.052872,371.016327 206.675629,368.728729 
	C208.162750,368.123688 209.209183,366.435516 211.198181,364.538940 
	C214.052917,367.659363 216.984467,370.863770 219.916031,374.068176 
	C219.720490,374.522675 219.524948,374.977142 219.329407,375.431641 
	C217.277115,374.908508 215.055008,374.725739 213.202835,373.801575 
	C206.328110,370.371277 203.744049,372.056641 203.945923,380.549713 
z"/>
<path fill="white" opacity="1.000000" stroke="none" 
	d="
M303.951752,97.175041 
	C290.361176,92.145409 276.817200,86.984833 263.165375,82.127342 
	C252.123642,78.198555 240.971832,74.573669 229.820633,70.962875 
	C227.700058,70.276215 225.353958,70.286003 223.111908,69.974472 
	C223.186890,69.194763 223.261856,68.415062 223.336838,67.635361 
	C228.708649,68.185043 234.153641,68.349525 239.439056,69.353905 
	C258.147705,72.909073 274.916473,82.027504 292.680389,88.310204 
	C295.913940,89.453842 299.122498,90.668228 302.645569,92.336899 
	C302.964081,93.211433 302.979614,93.599014 302.975464,94.324951 
	C303.298798,95.188644 303.641846,95.713982 303.959534,96.472649 
	C303.934235,96.705978 303.951752,97.175041 303.951752,97.175041 
z"/>
<path fill="white" opacity="1.000000" stroke="none" 
	d="
M395.809143,318.619629 
	C387.267456,322.604492 379.032990,326.335724 370.825409,330.125183 
	C370.122803,330.449554 369.344666,331.042786 369.033752,331.711945 
	C367.200653,335.656952 365.495575,339.661499 363.810242,343.502686 
	C360.404999,338.915344 363.351105,327.332489 368.839294,324.909729 
	C382.053345,319.076263 395.290192,313.294403 408.236420,307.615173 
	C408.113220,304.873627 407.984253,302.003571 407.807190,298.063904 
	C412.035156,301.915741 415.516937,305.087799 419.222717,308.463898 
	C414.591644,310.500427 411.071045,314.541748 407.125366,312.784912 
	C404.240234,314.238342 402.250397,315.234100 400.266846,316.242249 
	C398.881287,316.946472 397.504303,317.667694 395.809143,318.619629 
z"/>
<path fill="white" opacity="1.000000" stroke="none" 
	d="
M134.529419,217.004044 
	C117.939583,216.906708 102.261787,214.242706 87.092674,207.780151 
	C104.689323,209.548294 122.132874,209.038391 139.391937,204.883698 
	C139.935059,208.869949 140.456528,212.697372 140.957138,216.371521 
	C138.813416,216.597183 136.895081,216.799103 134.529419,217.004044 
z"/>
<path fill="white" opacity="1.000000" stroke="none" 
	d="
M346.095276,156.149307 
	C354.192596,159.086075 362.357117,161.853287 370.360748,165.026245 
	C374.822449,166.795059 379.016571,169.238846 382.745056,171.691284 
	C376.768494,171.657990 371.378204,171.311859 365.811401,170.738419 
	C364.941345,170.721909 364.247772,170.932724 363.554199,171.143524 
	C363.602325,171.384018 363.650482,171.624496 363.698639,171.864990 
	C364.467621,171.909256 365.236633,171.953537 366.437256,171.980255 
	C372.280701,172.216095 377.692535,172.469498 383.104340,172.722900 
	C385.208618,172.975174 387.312866,173.227448 389.528198,173.493042 
	C389.192108,174.619980 389.147034,175.157501 389.007751,175.183136 
	C377.719879,177.260666 366.648743,176.674728 355.919434,172.323578 
	C355.548248,172.173035 355.376770,171.530060 355.681519,170.659698 
	C356.697540,169.809891 357.144287,169.416977 357.591003,169.024048 
	C357.428558,168.861588 357.266083,168.699127 357.103638,168.536652 
	C356.560425,169.106583 356.017242,169.676514 355.474060,170.246460 
	C352.393616,167.707062 349.313202,165.167664 346.471558,162.118256 
	C346.505341,159.788589 346.300323,157.968948 346.095276,156.149307 
z"/>
<path fill="white" opacity="1.000000" stroke="none" 
	d="
M354.986084,366.798981 
	C356.696869,360.046692 358.395844,353.697845 360.094818,347.348999 
	C360.702148,347.273529 361.309509,347.198059 361.916840,347.122589 
	C362.378235,349.269287 363.461487,351.501526 363.180237,353.546082 
	C362.441864,358.913452 361.391174,364.280457 359.889832,369.481628 
	C359.176025,371.954559 357.568237,374.519623 355.641357,376.224670 
	C350.457550,380.811615 347.634766,374.411377 343.710602,373.102325 
	C340.140106,371.911255 336.780975,370.088928 333.215454,368.878387 
	C332.612396,368.673615 331.505737,370.283325 330.505859,370.820343 
	C329.560822,371.327942 328.450104,371.527069 327.412262,371.861877 
	C327.229767,370.964172 326.912231,370.069763 326.889923,369.168121 
	C326.821045,366.384674 326.864746,363.598511 326.864746,359.720642 
	C336.468658,364.525879 344.602142,368.595398 353.024200,372.809326 
	C353.708008,370.843140 354.341095,369.022797 354.986084,366.798981 
z"/>
<path fill="white" opacity="1.000000" stroke="none" 
	d="
M173.094131,387.008667 
	C168.892914,388.881744 164.591690,387.488373 161.030121,382.913879 
	C167.715775,383.016083 168.205368,376.807343 171.999542,373.357910 
	C172.056351,378.291260 173.050507,378.894836 179.055069,377.032654 
	C178.936127,375.420898 178.811401,373.730804 178.680099,371.951599 
	C175.977890,372.392639 173.923477,372.727936 171.869064,373.063232 
	C173.498718,369.180389 175.128357,365.297516 176.843460,361.211060 
	C178.836166,362.448151 180.412216,363.426544 183.474380,365.327545 
	C181.996948,366.246399 180.947693,366.898956 180.498932,367.178070 
	C181.604950,371.262268 184.146622,375.716827 183.560379,379.712433 
	C182.801712,384.883270 185.476303,388.300171 187.736237,392.223297 
	C187.319748,392.614197 186.903244,393.005127 186.486740,393.396027 
	C182.462646,391.509735 178.438538,389.623444 174.726028,387.404541 
	C175.706238,385.958160 176.374863,384.844360 177.043457,383.730530 
	C175.213669,383.000336 173.383865,382.270142 171.554077,381.539948 
	C171.242950,382.031738 170.931839,382.523529 170.620712,383.015350 
	C171.445190,384.346466 172.269653,385.677551 173.094131,387.008667 
z"/>
<path fill="white" opacity="1.000000" stroke="none" 
	d="
M130.352966,360.419922 
	C129.848450,361.634155 129.415924,362.457825 128.801682,363.627563 
	C133.415894,365.066101 137.766617,366.422485 142.984894,368.049347 
	C142.984894,364.344177 142.793228,362.040588 143.057953,359.790710 
	C143.212692,358.475647 144.096313,357.246338 144.652023,355.978424 
	C145.106384,357.176697 145.836380,358.346924 145.961655,359.578674 
	C146.292175,362.828003 146.360291,366.104004 146.548340,369.661926 
	C140.337677,369.661926 133.774521,369.729858 127.220505,369.516815 
	C126.758781,369.501801 126.016357,367.419525 125.996735,366.288269 
	C125.890106,360.138763 126.045898,353.984833 125.944527,347.835144 
	C125.907738,345.603363 125.409599,343.379211 125.154541,341.403870 
	C122.582184,340.842224 120.543884,340.397156 118.505577,339.952118 
	C118.608284,339.179108 118.710991,338.406067 118.813698,337.633057 
	C124.223053,337.633057 129.633896,337.573761 135.039902,337.708282 
	C135.713959,337.725067 136.362442,338.768372 137.022781,339.336029 
	C136.322693,339.840698 135.688309,340.620514 134.911972,340.805908 
	C129.421860,342.116882 127.309242,349.267242 130.593765,354.056946 
	C131.504303,355.384766 130.532928,358.003143 130.352966,360.419922 
z"/>
<path fill="white" opacity="1.000000" stroke="none" 
	d="
M109.975296,197.992508 
	C119.197319,195.239700 127.974327,192.487045 136.903137,189.686783 
	C137.510910,192.187286 138.348343,195.632584 139.315216,199.610458 
	C124.298302,204.273788 109.301117,203.326187 94.086800,200.729202 
	C99.234634,199.817032 104.382462,198.904846 109.975296,197.992508 
z"/>
<path fill="white" opacity="1.000000" stroke="none" 
	d="
M291.091309,349.149506 
	C289.515656,349.065155 288.378937,349.006042 287.183258,348.943848 
	C288.833832,344.572693 298.639465,341.786285 307.900726,343.783447 
	C304.485107,345.920654 302.143402,347.385864 299.468079,349.059845 
	C301.711151,357.014465 299.990326,367.793152 312.941010,369.164276 
	C310.532410,373.161224 299.746399,375.848785 292.911896,373.420685 
	C296.146027,371.644928 298.362396,370.428009 300.862885,369.055084 
	C299.478333,363.304932 298.178131,357.055634 296.307404,350.982056 
	C295.999939,349.983856 293.185822,349.757721 291.091309,349.149506 
z"/>
<path fill="white" opacity="1.000000" stroke="none" 
	d="
M143.607208,387.430786 
	C144.008072,387.433197 144.040375,387.644135 144.041595,387.750824 
	C142.048630,386.578247 140.191498,384.621002 138.027191,384.183502 
	C135.013168,383.574310 131.537247,383.371857 128.667755,384.282837 
	C120.479446,386.882477 112.503922,390.149902 104.421280,393.090271 
	C103.872871,393.289795 103.130318,392.955658 101.926620,391.806213 
	C104.274490,390.516327 106.528229,388.999725 108.987686,387.978638 
	C116.709938,384.772797 124.402199,381.417664 132.347809,378.876068 
	C134.593994,378.157593 137.874435,379.623230 140.292313,380.851440 
	C141.966080,381.701691 142.974045,383.862640 144.187042,385.326324 
	C143.879410,385.985687 143.542877,386.707031 143.607208,387.430786 
z"/>
<path fill="white" opacity="1.000000" stroke="none" 
	d="
M371.795532,246.954010 
	C371.386902,246.019089 371.131897,245.443481 370.555267,244.141937 
	C377.179169,245.195114 383.205078,246.153214 389.560242,247.163681 
	C383.782562,253.919098 377.371429,253.794281 371.795532,246.954010 
z"/>
<path fill="white" opacity="1.000000" stroke="none" 
	d="
M403.387054,231.254517 
	C403.792938,229.753189 404.313263,228.560944 404.976807,227.065796 
	C407.793671,230.095596 410.606812,233.328918 413.082489,236.802704 
	C414.327606,238.549881 414.959778,240.733902 416.059998,242.969788 
	C415.930847,243.934677 415.610840,244.650162 415.124786,245.722534 
	C411.139679,241.240799 407.320587,236.402191 403.387054,231.254517 
z"/>
<path fill="white" opacity="1.000000" stroke="none" 
	d="
M322.026245,356.113068 
	C320.092682,355.578796 318.561859,355.119202 316.398590,354.469696 
	C319.867584,351.937317 322.611481,349.475983 322.103546,345.182190 
	C322.064026,344.848022 323.161713,344.046844 323.696899,344.076416 
	C324.174255,344.102814 325.068939,345.323151 324.988800,345.431488 
	C321.817383,349.717010 325.749847,351.574554 327.855621,354.057312 
	C328.551758,354.878082 329.175262,355.760406 330.540833,357.536560 
	C327.140594,356.971161 324.784760,356.579437 322.026245,356.113068 
z"/>
<path fill="white" opacity="1.000000" stroke="none" 
	d="
M325.062317,103.198441 
	C323.678192,103.485725 322.294067,103.773003 320.909943,104.060280 
	C320.972595,103.663246 321.035217,103.266212 321.097839,102.869179 
	C319.361542,102.349449 317.633179,101.800949 315.886810,101.317558 
	C313.877655,100.761414 311.852539,100.262840 309.288239,99.597588 
	C311.926544,96.492905 314.031891,95.294212 317.306061,97.442635 
	C319.678986,98.999695 322.427399,99.984528 325.005981,101.886353 
	C325.023163,102.764938 325.042755,102.981689 325.062317,103.198441 
z"/>

<path fill="white" opacity="1.000000" stroke="none" 
	d="
M304.206512,97.549484 
	C303.951752,97.175041 303.934235,96.705978 304.271881,96.377701 
	C304.071411,95.361824 303.533295,94.674217 302.995178,93.986603 
	C302.979614,93.599014 302.964081,93.211433 302.964966,92.533218 
	C305.218781,92.699509 307.460480,93.151894 307.639221,96.620552 
	C308.134766,96.984077 308.597382,96.906738 308.597382,96.906738 
	C307.218689,97.245804 305.839966,97.584869 304.206512,97.549484 
z"/>

<path fill="white" opacity="1.000000" stroke="none" 
	d="
M207.003067,68.158859 
	C209.971527,68.158859 212.940002,68.158859 215.908463,68.158859 
	C215.923843,68.486092 215.939209,68.813324 215.954590,69.140556 
	C213.218735,69.140556 210.482880,69.140556 207.374451,68.822296 
	C207.001862,68.504044 207.003067,68.158859 207.003067,68.158859 
z"/>
<path fill="white" opacity="1.000000" stroke="none" 
	d="
M346.092255,156.175323 
	C346.300323,157.968948 346.505341,159.788589 346.386230,161.793350 
	C345.388855,161.210526 344.715607,160.442566 344.268433,159.205002 
	C345.032440,157.872513 345.570282,157.009644 346.108124,156.146790 
	C346.108124,156.146774 346.089233,156.201324 346.092255,156.175323 
z"/>
<path fill="white" opacity="1.000000" stroke="none" 
	d="
M345.804382,156.075806 
	C345.570282,157.009644 345.032440,157.872513 344.144104,158.916138 
	C343.436462,159.093033 343.185883,158.927643 343.010315,158.005630 
	C342.990173,156.925339 343.001678,156.440170 343.013184,155.954987 
	C343.842316,155.971603 344.671478,155.988220 345.804382,156.075806 
z"/>

<path fill="white" opacity="1.000000" stroke="none" 
	d="
M342.855469,155.616974 
	C343.001678,156.440170 342.990173,156.925339 342.961609,157.774109 
	C342.236389,157.207489 341.528259,156.277267 340.820129,155.347046 
	C341.446014,155.324356 342.071899,155.301651 342.855469,155.616974 
z"/>
<path fill="white" opacity="1.000000" stroke="none" 
	d="
M344.778992,107.860229 
	C344.559326,108.481392 344.131714,108.921494 343.704102,109.361588 
	C343.462524,108.853943 343.220917,108.346306 342.984772,107.552216 
	C343.517151,107.403557 344.044098,107.541359 344.778992,107.860229 
z"/>

<path fill="white" opacity="1.000000" stroke="none" 
	d="
M206.639908,68.091080 
	C207.003067,68.158859 207.001862,68.504044 207.002380,68.676636 
	C206.117645,68.849236 205.232391,68.849236 204.347122,68.849236 
	C204.333710,68.673317 204.320297,68.497391 204.306885,68.321472 
	C204.963516,68.222076 205.620132,68.122688 206.639908,68.091080 
z"/>

<path fill="white" opacity="1.000000" stroke="none" 
	d="
M389.988953,173.979706 
	C390.858978,173.854523 391.544830,174.072006 392.230652,174.289474 
	C392.178345,174.490356 392.126007,174.691223 392.073700,174.892090 
	C391.317413,174.702179 390.561096,174.512268 389.988953,173.979706 
z"/>
<path fill="white" opacity="1.000000" stroke="none" 
	d="
M344.911652,228.136475 
	C345.346313,228.492950 345.606842,229.066498 345.867371,229.640045 
	C345.523102,229.514603 345.178833,229.389160 344.634094,229.041779 
	C344.534912,228.664413 344.636200,228.508987 344.911652,228.136475 
z"/>

<path fill="white" opacity="1.000000" stroke="none" 
	d="
M97.536766,386.500244 
	C97.511948,386.488495 97.561584,386.511963 97.536766,386.500244 
z"/>
<path fill="white" opacity="1.000000" stroke="none" 
	d="
M141.613159,142.591309 
	C149.995300,140.056137 157.937515,137.200180 166.123215,135.557831 
	C172.825363,134.213104 179.883957,134.729202 186.660599,133.645416 
	C192.245743,132.752182 197.649246,130.723007 203.920868,128.978104 
	C183.603531,152.069626 158.650757,153.345642 131.507065,146.526657 
	C134.764221,145.282898 138.021378,144.039124 141.613159,142.591309 
z"/>
<path fill="white" opacity="1.000000" stroke="none" 
	d="
M172.612167,160.554886 
	C175.126633,159.635895 177.311508,158.930222 179.540482,158.210312 
	C182.309784,162.339355 182.187363,162.418243 169.551361,164.456665 
	C169.260483,164.095001 168.969589,163.733353 168.678711,163.371689 
	C169.879990,162.503860 171.081284,161.636032 172.612167,160.554886 
z"/>
<path fill="white" opacity="1.000000" stroke="none" 
	d="
M169.009277,156.909332 
	C173.639496,152.140152 176.867737,151.991150 179.238586,156.733643 
	C176.070969,157.601151 173.041031,158.466507 169.974930,159.175400 
	C169.804993,159.214706 169.335236,157.957245 169.009277,156.909332 
z"/>
<path fill="white" opacity="1.000000" stroke="none" 
	d="
M149.237595,160.269730 
	C150.127716,154.751282 153.756668,157.025223 156.847290,156.871613 
	C156.847290,158.592453 156.847290,160.108627 156.847290,162.593857 
	C153.866928,161.856522 151.468430,161.263138 149.237595,160.269730 
z"/>
<path fill="white" opacity="1.000000" stroke="none" 
	d="
M166.263733,159.049469 
	C164.141663,160.195999 161.958832,160.907410 159.776001,161.618820 
	C159.379471,161.134399 158.982956,160.649979 158.586441,160.165543 
	C159.710327,158.923828 160.660339,156.990555 162.011063,156.650940 
	C163.170502,156.359406 164.788025,157.889709 166.263733,159.049469 
z"/>
<path fill="white" opacity="1.000000" stroke="none" 
	d="
M230.798279,176.473831 
	C226.980499,170.996353 223.437546,165.785110 219.894608,160.573853 
	C220.314041,160.134384 220.733475,159.694931 221.152893,159.255463 
	C225.996140,163.366318 231.017059,167.294785 235.556549,171.717392 
	C236.678665,172.810608 236.237106,175.508789 236.514359,177.469193 
	C234.700623,177.226151 232.886871,176.983093 230.798279,176.473831 
z"/>
</svg>