<svg 
width="421.5" 
height="70.405" 
viewBox="0 0 421.5 70.405" 
xmlns="http://www.w3.org/2000/svg">
<g 
id="svgGroup" 
stroke-linecap="round" 
fill-rule="evenodd" 
font-size="9pt" 
stroke="#fff" 
stroke-width="0.01mm" 
fill="#fff" 
style="stroke:#fff;stroke-width:0.01mm;fill:#fff">
<path 
d="M 283.7 69.1 L 287.3 0.9 L 298 0.9 L 313.4 41.5 Q 314.7 45 315.8 47.95 A 314.984 314.984 0 0 1 316.705 50.407 Q 317.25 51.906 317.7 53.2 Q 318.7 55.8 319.4 58 L 319.6 58 Q 320.2 55.8 321.1 53.2 A 574.526 574.526 0 0 0 321.838 51.063 Q 322.213 49.973 322.623 48.767 A 961.972 961.972 0 0 0 322.9 47.95 Q 323.9 45 325.3 41.5 L 341 0.9 L 351.7 0.9 L 355.2 69.1 L 346.7 69.1 L 345 31.6 A 1038.621 1038.621 0 0 1 344.864 28.136 Q 344.763 25.425 344.7 23.3 Q 344.6 19.9 344.6 17.7 L 344.6 13.5 L 344.4 13.5 A 51.594 51.594 0 0 0 344.081 14.319 Q 343.733 15.234 343.305 16.442 A 170.798 170.798 0 0 0 342.9 17.6 Q 342.184 19.568 341.109 22.536 A 9329.432 9329.432 0 0 0 340.85 23.25 Q 339.991 25.622 338.871 28.679 A 2900.792 2900.792 0 0 1 337.8 31.6 L 323.7 69.1 L 315.2 69.1 L 301 31.6 A 291.899 291.899 0 0 1 299.673 28.19 Q 298.65 25.506 297.9 23.35 Q 296.827 20.264 296.073 18.178 A 233.194 233.194 0 0 0 295.9 17.7 Q 295 15.1 294.5 13.5 L 294.3 13.5 Q 294.389 14.931 294.479 17.163 A 331.295 331.295 0 0 1 294.5 17.7 Q 294.581 21.113 294.332 28.156 A 585.542 585.542 0 0 1 294.2 31.6 L 292.2 69.1 L 283.7 69.1 Z M 185.6 2.8 L 184.2 10.5 Q 179.8 9.6 174.85 8.8 A 71.935 71.935 0 0 0 170.222 8.215 Q 167.848 7.988 165.197 7.868 A 124.271 124.271 0 0 0 163.4 7.8 A 40.157 40.157 0 0 0 158.06 8.218 Q 154.738 8.716 152 9.8 Q 147.2 11.7 144.15 15.25 A 22.58 22.58 0 0 0 140.217 21.91 A 26.767 26.767 0 0 0 139.6 23.7 Q 138.1 28.6 138.1 34.5 Q 138.1 40.963 139.51 45.835 A 27.019 27.019 0 0 0 140.05 47.5 A 27.042 27.042 0 0 0 142.364 52.395 A 21.031 21.031 0 0 0 145.45 56.35 Q 148.9 59.8 153.5 61.4 Q 158.1 63 163.4 63 Q 166.8 63 169.55 62.6 A 52.666 52.666 0 0 0 171.822 62.221 Q 173.197 61.959 174.35 61.65 A 33.699 33.699 0 0 0 176.661 60.944 A 27.152 27.152 0 0 0 178.1 60.4 L 178.1 42.1 L 165.6 42.1 L 165.6 34.6 L 186.6 34.6 L 186.6 64.5 A 24.605 24.605 0 0 1 183.742 66.095 Q 182.182 66.844 180.297 67.538 A 58.434 58.434 0 0 1 176.95 68.65 A 41.318 41.318 0 0 1 168.808 70.198 Q 166.193 70.438 163.4 70.4 Q 156.6 70.4 150.35 68.8 Q 144.1 67.2 139.25 63.15 A 25.192 25.192 0 0 1 134.063 57.119 A 33.843 33.843 0 0 1 131.5 52.1 A 34.15 34.15 0 0 1 129.622 45.802 Q 128.6 40.753 128.6 34.4 A 47.479 47.479 0 0 1 129.117 27.218 Q 129.781 22.878 131.3 19.25 A 32.013 32.013 0 0 1 135.194 12.366 A 27.543 27.543 0 0 1 138.65 8.55 Q 143.3 4.3 149.45 2.15 A 39.134 39.134 0 0 1 162.056 0.002 A 44.06 44.06 0 0 1 162.5 0 A 82.632 82.632 0 0 1 170.145 0.345 A 75.274 75.274 0 0 1 171.2 0.45 Q 175.4 0.9 178.9 1.45 Q 182.4 2 185.6 2.8 Z M 201.5 69.1 L 201.5 0.9 L 218.3 0.9 Q 223.8 0.9 228.35 1.85 A 23.782 23.782 0 0 1 232.502 3.1 A 18.233 18.233 0 0 1 236.1 5.05 Q 239.3 7.3 241 11 A 17.026 17.026 0 0 1 242.162 14.601 Q 242.532 16.354 242.647 18.39 A 33.728 33.728 0 0 1 242.7 20.3 A 32.672 32.672 0 0 1 242.407 24.285 Q 242.121 26.331 241.562 28.038 A 15.412 15.412 0 0 1 240.6 30.35 Q 238.6 34.2 235.7 36.55 A 18.757 18.757 0 0 1 229.266 39.921 A 21.427 21.427 0 0 1 229 40 L 229 40.2 Q 229.4 40.6 230.25 41.65 A 84.821 84.821 0 0 1 230.852 42.402 Q 231.325 43 231.7 43.5 L 251 69.1 L 241.1 69.1 L 221.3 42 L 209.9 42 L 209.9 69.1 L 201.5 69.1 Z M 43 69.1 L 66.4 0.9 L 76.8 0.9 L 100.2 69.1 L 91.5 69.1 L 85.5 50.9 L 57.8 50.9 L 51.7 69.1 L 43 69.1 Z M 364.3 69.1 L 387.7 0.9 L 398.1 0.9 L 421.5 69.1 L 412.8 69.1 L 406.8 50.9 L 379.1 50.9 L 373 69.1 L 364.3 69.1 Z M 0 69.1 L 0 0.9 L 8.4 0.9 L 8.4 61.1 L 39.4 61.1 L 39.4 69.1 L 0 69.1 Z M 259.4 69.1 L 259.4 0.9 L 267.8 0.9 L 267.8 69.1 L 259.4 69.1 Z M 60.4 42.9 L 82.8 42.9 L 71.8 8.9 L 71.5 8.9 L 60.4 42.9 Z M 381.7 42.9 L 404.1 42.9 L 393.1 8.9 L 392.8 8.9 L 381.7 42.9 Z M 218.2 8.4 L 209.9 8.4 L 209.9 34.5 L 219.8 34.5 A 25.363 25.363 0 0 0 222.664 34.347 Q 224.101 34.184 225.328 33.845 A 13.251 13.251 0 0 0 226.4 33.5 A 13.401 13.401 0 0 0 228.816 32.334 A 10.367 10.367 0 0 0 230.8 30.75 Q 232.5 29 233.3 26.7 Q 234.1 24.4 234.2 21.7 Q 234.2 18.706 233.666 16.5 A 12.373 12.373 0 0 0 233.15 14.85 Q 232.1 12.2 230.05 10.8 A 10.929 10.929 0 0 0 227.443 9.51 A 15.029 15.029 0 0 0 225 8.9 Q 222 8.4 218.2 8.4 Z M 107.2 63.2 Q 107.2 60.8 108.9 59.05 A 5.602 5.602 0 0 1 112.945 57.302 A 7.037 7.037 0 0 1 113.1 57.3 Q 115.7 57.3 117.5 59.05 A 6.02 6.02 0 0 1 118.821 60.898 A 5.55 5.55 0 0 1 119.3 63.2 A 5.687 5.687 0 0 1 118.706 65.807 A 5.782 5.782 0 0 1 117.5 67.4 A 6.162 6.162 0 0 1 113.141 69.1 A 7.937 7.937 0 0 1 113.1 69.1 A 6.05 6.05 0 0 1 110.735 68.648 A 5.707 5.707 0 0 1 108.9 67.4 Q 107.2 65.7 107.2 63.2 Z" vector-effect="non-scaling-stroke"/>
</g>
</svg>