<svg width="155.7" height="23.13" viewBox="0 0 155.7 23.13" xmlns="http://www.w3.org/2000/svg"><g id="svgGroup" stroke-linecap="round" fill-rule="evenodd" font-size="9pt" stroke="#ff0000" stroke-width="0.25mm" fill="#ff0000" style="stroke:#ff0000;stroke-width:0.25mm;fill:#ff0000"><path d="M 35.91 22.74 L 35.91 10.38 A 14.454 14.454 0 0 0 35.885 9.556 Q 35.864 9.188 35.825 8.779 A 28.783 28.783 0 0 0 35.73 7.92 L 37.98 7.62 L 38.31 9.51 A 17.806 17.806 0 0 1 39.311 8.819 A 15.032 15.032 0 0 1 39.9 8.46 Q 40.68 8.01 41.58 7.68 Q 42.48 7.35 43.41 7.35 A 6.957 6.957 0 0 1 44.327 7.407 Q 44.788 7.468 45.17 7.596 A 3.078 3.078 0 0 1 45.78 7.875 Q 46.577 8.356 46.997 9.455 A 5.079 5.079 0 0 1 47.07 9.66 Q 48.3 8.79 49.635 8.07 A 5.831 5.831 0 0 1 51.963 7.368 A 5.677 5.677 0 0 1 52.41 7.35 A 7.218 7.218 0 0 1 53.25 7.396 Q 53.834 7.465 54.3 7.635 Q 55.08 7.92 55.56 8.58 A 3.399 3.399 0 0 1 55.94 9.264 Q 56.08 9.599 56.179 9.998 A 6.502 6.502 0 0 1 56.25 10.32 Q 56.46 11.4 56.46 13.02 L 56.46 22.74 L 54.06 22.74 L 54.06 13.29 Q 54.06 12.45 54.034 11.779 A 26.726 26.726 0 0 0 54.03 11.685 A 5.25 5.25 0 0 0 53.981 11.147 Q 53.942 10.882 53.876 10.656 A 2.799 2.799 0 0 0 53.82 10.485 A 1.62 1.62 0 0 0 53.556 10.011 A 1.445 1.445 0 0 0 53.235 9.72 A 1.4 1.4 0 0 0 52.857 9.548 Q 52.676 9.494 52.457 9.469 A 3.456 3.456 0 0 0 52.08 9.45 A 4.362 4.362 0 0 0 50.979 9.586 A 4.016 4.016 0 0 0 50.775 9.645 Q 50.16 9.84 49.5 10.2 Q 48.845 10.557 47.482 11.652 A 46.582 46.582 0 0 0 47.46 11.67 L 47.46 22.74 L 45.06 22.74 L 45.06 13.29 Q 45.06 12.45 45.034 11.779 A 26.726 26.726 0 0 0 45.03 11.685 A 5.25 5.25 0 0 0 44.981 11.147 Q 44.942 10.882 44.876 10.656 A 2.799 2.799 0 0 0 44.82 10.485 A 1.62 1.62 0 0 0 44.556 10.011 A 1.445 1.445 0 0 0 44.235 9.72 A 1.4 1.4 0 0 0 43.857 9.548 Q 43.676 9.494 43.457 9.469 A 3.456 3.456 0 0 0 43.08 9.45 A 4.095 4.095 0 0 0 42.037 9.59 A 5.177 5.177 0 0 0 41.46 9.78 Q 40.62 10.11 39.87 10.56 Q 39.12 11.01 38.31 11.61 L 38.31 22.74 L 35.91 22.74 Z M 67.44 22.74 L 67.44 10.65 Q 67.465 10.117 67.34 8.531 A 89.773 89.773 0 0 0 67.29 7.92 L 69.51 7.62 L 69.84 9.54 A 18.206 18.206 0 0 1 71.182 8.724 A 16.024 16.024 0 0 1 71.625 8.49 Q 72.51 8.04 73.44 7.695 A 5.654 5.654 0 0 1 74.467 7.416 A 4.647 4.647 0 0 1 75.24 7.35 A 8.794 8.794 0 0 1 76.106 7.39 Q 76.779 7.457 77.295 7.635 Q 78.12 7.92 78.63 8.58 A 3.38 3.38 0 0 1 79.046 9.291 Q 79.245 9.746 79.365 10.32 Q 79.59 11.4 79.59 13.02 L 79.59 22.74 L 77.19 22.74 L 77.19 13.29 Q 77.19 12.45 77.164 11.779 A 26.726 26.726 0 0 0 77.16 11.685 Q 77.134 11.072 76.96 10.617 A 2.33 2.33 0 0 0 76.905 10.485 Q 76.68 9.99 76.215 9.72 A 1.712 1.712 0 0 0 75.814 9.555 Q 75.612 9.499 75.37 9.473 A 4.281 4.281 0 0 0 74.91 9.45 Q 74.13 9.45 73.26 9.795 Q 72.39 10.14 71.55 10.59 A 17.189 17.189 0 0 0 70.327 11.314 A 20.084 20.084 0 0 0 69.84 11.64 L 69.84 22.74 L 67.44 22.74 Z M 121.74 22.74 L 121.74 10.65 Q 121.765 10.117 121.64 8.531 A 89.773 89.773 0 0 0 121.59 7.92 L 123.81 7.62 L 124.14 9.54 A 18.206 18.206 0 0 1 125.482 8.724 A 16.024 16.024 0 0 1 125.925 8.49 Q 126.81 8.04 127.74 7.695 A 5.654 5.654 0 0 1 128.767 7.416 A 4.647 4.647 0 0 1 129.54 7.35 A 8.794 8.794 0 0 1 130.406 7.39 Q 131.079 7.457 131.595 7.635 Q 132.42 7.92 132.93 8.58 A 3.38 3.38 0 0 1 133.346 9.291 Q 133.545 9.746 133.665 10.32 Q 133.89 11.4 133.89 13.02 L 133.89 22.74 L 131.49 22.74 L 131.49 13.29 Q 131.49 12.45 131.464 11.779 A 26.726 26.726 0 0 0 131.46 11.685 Q 131.434 11.072 131.26 10.617 A 2.33 2.33 0 0 0 131.205 10.485 Q 130.98 9.99 130.515 9.72 A 1.712 1.712 0 0 0 130.114 9.555 Q 129.912 9.499 129.67 9.473 A 4.281 4.281 0 0 0 129.21 9.45 Q 128.43 9.45 127.56 9.795 Q 126.69 10.14 125.85 10.59 A 17.189 17.189 0 0 0 124.627 11.314 A 20.084 20.084 0 0 0 124.14 11.64 L 124.14 22.74 L 121.74 22.74 Z M 0 22.74 L 7.02 2.28 L 10.14 2.28 L 17.16 22.74 L 14.55 22.74 L 12.75 17.28 L 4.44 17.28 L 2.61 22.74 L 0 22.74 Z M 29.4 22.98 L 29.16 21.54 Q 28.47 22.02 27.825 22.335 Q 27.18 22.65 26.415 22.89 A 5.244 5.244 0 0 1 25.436 23.101 A 4.488 4.488 0 0 1 24.93 23.13 A 6.393 6.393 0 0 1 22.949 22.838 A 5.106 5.106 0 0 1 20.505 21.135 Q 19.286 19.62 18.993 17.041 A 15.434 15.434 0 0 1 18.9 15.3 Q 18.9 13.465 19.376 12.116 A 6.237 6.237 0 0 1 19.635 11.49 A 8.108 8.108 0 0 1 20.457 10.123 A 6.279 6.279 0 0 1 21.48 9.045 A 7.127 7.127 0 0 1 23.199 7.984 A 6.487 6.487 0 0 1 23.865 7.74 Q 25.129 7.353 26.202 7.35 A 6.011 6.011 0 0 1 26.22 7.35 A 8.73 8.73 0 0 1 26.991 7.385 A 10.351 10.351 0 0 1 27.36 7.425 Q 27.825 7.483 28.633 7.677 A 32.058 32.058 0 0 1 29.13 7.8 L 29.13 0.27 L 31.53 0 L 31.53 20.01 Q 31.53 20.43 31.545 20.895 Q 31.56 21.36 31.605 21.81 A 37.469 37.469 0 0 0 31.695 22.62 A 41.407 41.407 0 0 0 31.71 22.74 L 29.4 22.98 Z M 115.35 22.98 L 115.05 21.33 A 25.835 25.835 0 0 1 113.709 22.051 Q 113.047 22.381 112.435 22.631 A 15.036 15.036 0 0 1 112.425 22.635 A 6.799 6.799 0 0 1 110.106 23.124 A 7.857 7.857 0 0 1 109.8 23.13 A 6.712 6.712 0 0 1 108.489 23.009 Q 107.704 22.853 107.092 22.494 A 3.742 3.742 0 0 1 106.605 22.155 A 2.951 2.951 0 0 1 105.717 20.863 Q 105.534 20.365 105.463 19.745 A 7.258 7.258 0 0 1 105.42 18.93 A 3.848 3.848 0 0 1 105.58 17.803 A 3.286 3.286 0 0 1 106.02 16.89 A 4.944 4.944 0 0 1 107.386 15.566 A 5.769 5.769 0 0 1 107.595 15.435 A 8.138 8.138 0 0 1 109.056 14.751 A 9.735 9.735 0 0 1 109.8 14.52 Q 111.03 14.19 112.32 14.1 A 14.271 14.271 0 0 1 112.611 14.071 Q 113.012 14.035 113.55 14.005 A 44.623 44.623 0 0 1 113.73 13.995 A 247.06 247.06 0 0 0 114.141 13.973 Q 114.539 13.952 114.834 13.935 A 64.805 64.805 0 0 0 115.08 13.92 A 31.476 31.476 0 0 0 115.067 12.985 Q 115.052 12.483 115.02 12.045 A 4.483 4.483 0 0 0 114.922 11.369 Q 114.829 10.964 114.66 10.635 Q 114.36 10.05 113.775 9.75 A 2.256 2.256 0 0 0 113.314 9.579 Q 112.85 9.458 112.199 9.451 A 7.558 7.558 0 0 0 112.11 9.45 Q 111.24 9.45 110.43 9.555 Q 109.674 9.653 109.074 9.764 A 17.468 17.468 0 0 0 108.99 9.78 A 19.487 19.487 0 0 0 108.184 9.958 A 15.441 15.441 0 0 0 107.61 10.11 L 107.13 8.04 A 23.718 23.718 0 0 1 108.114 7.827 A 29.011 29.011 0 0 1 108.75 7.71 A 15.49 15.49 0 0 1 109.452 7.587 Q 109.813 7.532 110.216 7.485 A 26.911 26.911 0 0 1 110.49 7.455 A 18.758 18.758 0 0 1 111.786 7.365 A 22.976 22.976 0 0 1 112.62 7.35 Q 113.711 7.35 114.504 7.579 A 3.858 3.858 0 0 1 115.095 7.8 A 4.002 4.002 0 0 1 115.975 8.362 A 3.33 3.33 0 0 1 116.565 9.015 A 4.597 4.597 0 0 1 117.246 10.574 A 5.316 5.316 0 0 1 117.285 10.755 A 10.218 10.218 0 0 1 117.473 12.409 A 11.644 11.644 0 0 1 117.48 12.81 L 117.48 20.01 Q 117.48 20.43 117.495 20.895 Q 117.51 21.36 117.555 21.81 A 37.469 37.469 0 0 0 117.645 22.62 A 41.407 41.407 0 0 0 117.66 22.74 L 115.35 22.98 Z M 148.83 20.37 L 149.28 22.38 Q 148.59 22.59 147.855 22.74 Q 147.12 22.89 146.235 23.01 A 13.517 13.517 0 0 1 144.659 23.128 A 15.109 15.109 0 0 1 144.39 23.13 A 9.454 9.454 0 0 1 142.512 22.949 A 8.186 8.186 0 0 1 141.6 22.71 Q 140.31 22.29 139.35 21.36 Q 138.39 20.43 137.835 18.945 A 8.05 8.05 0 0 1 137.456 17.516 Q 137.28 16.515 137.28 15.3 A 11.951 11.951 0 0 1 137.398 13.581 A 8.658 8.658 0 0 1 137.82 11.865 A 7.892 7.892 0 0 1 138.532 10.384 A 6.433 6.433 0 0 1 139.305 9.375 Q 140.25 8.37 141.525 7.86 A 7.21 7.21 0 0 1 143.745 7.368 A 8.472 8.472 0 0 1 144.3 7.35 A 6.389 6.389 0 0 1 145.552 7.467 A 4.762 4.762 0 0 1 146.85 7.92 Q 147.93 8.49 148.635 9.465 A 6.496 6.496 0 0 1 149.462 11.037 A 7.872 7.872 0 0 1 149.685 11.745 Q 150.03 13.05 150.03 14.49 L 149.58 15.81 L 139.89 15.81 Q 139.89 16.74 140.13 17.67 Q 140.37 18.6 140.955 19.35 A 4.17 4.17 0 0 0 142.089 20.348 A 5.045 5.045 0 0 0 142.485 20.565 A 4.212 4.212 0 0 0 143.473 20.899 Q 144.091 21.03 144.84 21.03 Q 145.74 21.03 146.49 20.925 A 17.503 17.503 0 0 0 147.025 20.842 Q 147.316 20.792 147.571 20.737 A 9.51 9.51 0 0 0 147.795 20.685 A 9.491 9.491 0 0 0 148.523 20.478 A 8.07 8.07 0 0 0 148.83 20.37 Z M 91.17 22.74 L 91.17 2.28 L 95.88 2.28 A 17.624 17.624 0 0 1 97.914 2.389 Q 100.091 2.643 101.403 3.487 A 4.859 4.859 0 0 1 101.655 3.66 Q 103.251 4.835 103.489 7.379 A 10.028 10.028 0 0 1 103.53 8.31 A 9.38 9.38 0 0 1 103.53 8.338 Q 103.525 9.882 103.01 10.982 A 4.394 4.394 0 0 1 102.84 11.31 A 6.286 6.286 0 0 1 101.786 12.685 A 5.6 5.6 0 0 1 101.115 13.245 Q 100.08 13.98 98.88 14.295 A 10.201 10.201 0 0 1 97.725 14.531 A 7.586 7.586 0 0 1 96.66 14.61 L 93.69 14.61 L 93.69 22.74 L 91.17 22.74 Z M 153.3 22.74 L 153.3 0.27 L 155.7 0 L 155.7 22.74 L 153.3 22.74 Z M 60.69 22.74 L 60.69 7.62 L 63.09 7.35 L 63.09 22.74 L 60.69 22.74 Z M 29.13 19.44 L 29.13 9.9 A 23.742 23.742 0 0 0 28.62 9.764 Q 27.9 9.581 27.45 9.525 Q 26.85 9.45 26.22 9.45 A 5.918 5.918 0 0 0 25.221 9.53 Q 24.64 9.63 24.159 9.853 A 3.63 3.63 0 0 0 24.06 9.9 Q 23.16 10.35 22.575 11.145 A 5.21 5.21 0 0 0 21.812 12.657 A 6.063 6.063 0 0 0 21.72 12.975 A 8.449 8.449 0 0 0 21.463 14.675 A 9.772 9.772 0 0 0 21.45 15.18 Q 21.45 16.23 21.675 17.28 A 6.922 6.922 0 0 0 22.08 18.568 A 5.956 5.956 0 0 0 22.38 19.17 A 4.684 4.684 0 0 0 22.986 20.011 A 3.918 3.918 0 0 0 23.55 20.52 A 2.599 2.599 0 0 0 24.842 21.011 A 3.346 3.346 0 0 0 25.2 21.03 A 4.002 4.002 0 0 0 26.15 20.911 A 4.866 4.866 0 0 0 26.565 20.79 A 9.492 9.492 0 0 0 27.544 20.397 A 8.254 8.254 0 0 0 27.87 20.235 A 9.042 9.042 0 0 0 28.524 19.854 A 11.952 11.952 0 0 0 29.13 19.44 Z M 5.22 14.88 L 11.94 14.88 L 8.64 4.68 L 8.55 4.68 L 5.22 14.88 Z M 93.69 4.53 L 93.69 12.36 L 96.45 12.36 Q 97.47 12.36 98.295 12.165 A 3.949 3.949 0 0 0 99.195 11.838 A 3.365 3.365 0 0 0 99.72 11.505 A 2.864 2.864 0 0 0 100.462 10.633 A 3.617 3.617 0 0 0 100.65 10.245 Q 100.914 9.608 100.967 8.711 A 7.887 7.887 0 0 0 100.98 8.25 Q 100.98 7.05 100.635 6.315 Q 100.29 5.58 99.615 5.19 A 3.667 3.667 0 0 0 98.906 4.88 Q 98.559 4.768 98.152 4.7 A 6.741 6.741 0 0 0 97.92 4.665 Q 97.043 4.549 95.923 4.533 A 25.633 25.633 0 0 0 95.55 4.53 L 93.69 4.53 Z M 115.08 19.23 L 115.08 15.81 Q 114.48 15.84 113.94 15.87 Q 113.4 15.9 112.875 15.945 Q 112.358 15.989 111.943 16.048 A 12.495 12.495 0 0 0 111.93 16.05 A 13.528 13.528 0 0 0 110.871 16.222 Q 109.845 16.434 109.217 16.775 A 2.806 2.806 0 0 0 108.87 16.995 A 2.193 2.193 0 0 0 107.988 18.587 A 3.208 3.208 0 0 0 107.97 18.93 A 2.712 2.712 0 0 0 108.036 19.549 Q 108.139 19.989 108.403 20.298 A 1.63 1.63 0 0 0 108.615 20.505 A 2.252 2.252 0 0 0 109.524 20.943 Q 109.883 21.03 110.31 21.03 Q 111.75 21.03 112.875 20.535 A 10.803 10.803 0 0 0 114.537 19.615 A 12.532 12.532 0 0 0 115.08 19.23 Z M 139.98 13.89 L 147.54 13.89 A 1.969 1.969 0 0 0 147.536 13.774 Q 147.52 13.523 147.45 12.961 Q 147.36 12.24 147.03 11.46 A 3.806 3.806 0 0 0 146.219 10.264 A 4.529 4.529 0 0 0 146.01 10.065 A 2.354 2.354 0 0 0 144.941 9.529 A 3.452 3.452 0 0 0 144.18 9.45 A 4.969 4.969 0 0 0 143.298 9.524 Q 142.792 9.615 142.383 9.819 A 2.798 2.798 0 0 0 142.11 9.975 A 4.719 4.719 0 0 0 141.264 10.667 A 4.026 4.026 0 0 0 140.82 11.22 A 4.907 4.907 0 0 0 140.346 12.109 A 4.148 4.148 0 0 0 140.16 12.69 A 9.18 9.18 0 0 0 140.065 13.129 Q 139.989 13.533 139.981 13.823 A 2.418 2.418 0 0 0 139.98 13.89 Z M 60.414 2.701 A 1.684 1.684 0 0 0 60.3 3.33 A 2.031 2.031 0 0 0 60.3 3.352 A 1.564 1.564 0 0 0 60.765 4.485 A 1.553 1.553 0 0 0 61.291 4.836 A 1.684 1.684 0 0 0 61.92 4.95 A 2.198 2.198 0 0 0 61.965 4.95 A 1.699 1.699 0 0 0 63.135 4.485 A 1.565 1.565 0 0 0 63.483 4.015 A 1.576 1.576 0 0 0 63.63 3.33 A 1.888 1.888 0 0 0 63.629 3.276 A 1.514 1.514 0 0 0 63.135 2.175 Q 62.64 1.71 61.92 1.71 A 2.031 2.031 0 0 0 61.898 1.71 A 1.564 1.564 0 0 0 60.765 2.175 A 1.553 1.553 0 0 0 60.414 2.701 Z" vector-effect="non-scaling-stroke"/></g></svg>