<svg width="252.7" height="32.151" viewBox="0 0 252.7 32.151" xmlns="http://www.w3.org/2000/svg"><g id="svgGroup" stroke-linecap="round" fill-rule="evenodd" font-size="9pt" stroke="#ff0000" stroke-width="0.25mm" fill="#ff0000" style="stroke:#ff0000;stroke-width:0.25mm;fill:#ff0000"><path d="M 81.95 7.4 L 84.7 31.95 L 83.7 31.95 L 82.9 24.45 L 81.1 9.6 L 80.9 9.6 L 72.25 28.85 L 71.1 28.85 L 62.6 9.6 L 62.4 9.6 L 60.65 24.4 L 59.85 31.95 L 58.8 31.95 L 61.65 7.4 L 62.85 7.4 L 64.45 11.2 L 71.6 27.4 L 71.75 27.4 L 79.25 10.8 L 80.8 7.4 L 81.95 7.4 Z M 124.55 7.35 L 124.5 25.1 L 124.45 31.95 L 123.45 31.95 L 107.15 9.4 L 107 9.4 L 106.95 24.25 L 106.95 31.95 L 105.95 31.95 L 105.95 24.65 L 106 7.4 L 107 7.4 L 123.3 29.95 L 123.5 29.95 L 123.55 7.45 L 124.55 7.35 Z M 209.6 7.35 L 209.55 25.1 L 209.5 31.95 L 208.5 31.95 L 192.2 9.4 L 192.05 9.4 L 192 24.25 L 192 31.95 L 191 31.95 L 191 24.65 L 191.05 7.4 L 192.05 7.4 L 208.35 29.95 L 208.55 29.95 L 208.6 7.45 L 209.6 7.35 Z M 233.35 31 L 233.5 31.15 L 233.3 31.95 L 220.4 31.95 L 220.4 7.4 L 233.2 7.4 L 233.35 7.6 L 233.15 8.4 L 221.4 8.35 L 221.4 18.75 L 231.15 18.75 L 231.25 18.95 L 231.1 19.75 L 221.4 19.75 L 221.4 31 L 233.35 31 Z M 13.7 0.1 L 25.35 31.95 L 24.2 31.95 L 23.55 29.8 L 20.4 21.3 L 5.3 21.3 L 1.9 29.8 L 1.2 31.95 L 0 31.95 L 12.7 0.1 L 13.7 0.1 Z M 149.9 19.5 L 145.45 19.5 L 145.45 31.95 L 144.45 31.95 L 144.45 0.1 L 151.5 0 A 13.056 13.056 0 0 1 154.139 0.251 Q 155.749 0.583 156.978 1.357 A 7.13 7.13 0 0 1 158.2 2.325 Q 160.369 4.472 160.536 8.301 A 14.928 14.928 0 0 1 160.55 8.95 A 15.129 15.129 0 0 1 160.254 12.042 Q 159.648 14.944 157.8 16.775 A 8.882 8.882 0 0 1 153.963 18.974 Q 152.163 19.5 149.9 19.5 Z M 174 7.4 L 183.5 31.95 L 182.35 31.95 L 181.85 30.2 L 179.4 23.9 L 167 23.9 L 164.35 30.2 L 163.75 31.95 L 162.6 31.95 L 172.95 7.4 L 174 7.4 Z M 32.15 31.95 L 32.15 7.4 L 40.5 7.2 A 16.024 16.024 0 0 1 43.835 7.526 Q 46.968 8.193 48.95 10.225 Q 51.566 12.908 51.862 17.654 A 20.007 20.007 0 0 1 51.9 18.9 Q 51.9 25.25 48.825 28.7 A 9.979 9.979 0 0 1 43.432 31.796 A 15.244 15.244 0 0 1 40.05 32.15 Q 38.753 32.15 36.776 32.11 A 316.741 316.741 0 0 1 36.3 32.1 Q 34 32.05 32.15 31.95 Z M 40.45 8.2 L 33.15 8.4 L 33.15 31 Q 34.8 31.1 36.825 31.15 Q 38.636 31.195 39.828 31.2 A 68.789 68.789 0 0 0 40.1 31.2 A 13.602 13.602 0 0 0 43.374 30.829 A 9.022 9.022 0 0 0 48.1 28.025 Q 50.456 25.353 50.83 20.752 A 22.286 22.286 0 0 0 50.9 18.95 A 16.036 16.036 0 0 0 50.616 15.833 Q 50.025 12.851 48.2 10.975 A 8.716 8.716 0 0 0 44.229 8.676 Q 42.541 8.2 40.45 8.2 Z M 252.6 31 L 252.7 31.15 L 252.55 31.95 L 240.95 31.95 L 240.95 7.4 L 241.95 7.4 L 241.95 31 L 252.6 31 Z M 151.85 1 L 145.45 1.05 L 145.45 18.5 L 151.4 18.5 Q 155.3 18.15 157.425 15.625 A 8.718 8.718 0 0 0 159.213 11.999 Q 159.55 10.604 159.55 8.95 Q 159.55 5.98 158.261 4.073 A 6.296 6.296 0 0 0 157.55 3.2 Q 155.679 1.283 152.322 1.028 A 13.363 13.363 0 0 0 151.85 1 Z M 20.05 20.3 L 13.25 1.8 L 13.05 1.8 L 5.7 20.3 L 20.05 20.3 Z M 95.1 7.4 L 95.1 31.95 L 94.1 31.95 L 94.1 7.4 L 95.1 7.4 Z M 179 22.95 L 173.5 8.9 L 173.35 8.9 L 167.4 22.95 L 179 22.95 Z" vector-effect="non-scaling-stroke"/></g></svg>